<?xml version="1.0" encoding="UTF-8"?>
<svg id="_圖層_2" data-name="圖層 2" xmlns="http://www.w3.org/2000/svg" viewBox="0 0 574.28 255.06">
  <defs>
    <style>
      .cls-1 {
        fill: none;
      }

      .cls-2 {
        fill: #140305;
      }

      .cls-3 {
        fill: #dbdcdc;
      }
    </style>
  </defs>
  <g id="_圖層_1-2" data-name="圖層 1">
    <g>
      <g>
        <g>
          <path class="cls-3" d="M41.01,158.67C5.33,158.67,0,138.42,0,126.35c0-8.24,2.75-25.71,25.09-30.94-10.06-5.36-16.01-15.21-16.12-28,0-21.44,15.11-34.18,40.41-34.18h4.21c0-.17,0-.35,0-.52.05-11.5,8.9-19.83,21.07-19.83h53.15l-.33,36.45h-14.81c4.8,6.59,5.76,14.07,5.82,18.69.2,9.87-2.62,17.85-8.38,23.73-.78.79-1.59,1.53-2.43,2.21,16.16,6.21,20.3,19.09,20.42,30.36.14,9.73-2.74,17.68-8.56,23.59-7.21,7.31-18.45,10.87-34.37,10.87l-44.15-.13ZM74.49,69.01c1.49,0,2.24-.25,2.51-.37.03-.11.06-.28.08-.51-.44-.19-1.36-.46-2.96-.46h-.49s-20.26-.25-20.26-.25c-1.62,0-2.48.32-2.75.49-.01.06-.02.16-.03.29.5.17,1.47.39,2.97.44,0,0,20.92.38,20.92.38Z"/>
          <path class="cls-3" d="M94.42,127.2V33.24h41.63v4.42c7.08-3.87,15.28-5.81,24.56-5.81,13.66,0,24.88,4.18,32.46,12.08,7.83,8.17,11.48,19.73,10.85,34.37l-.46,10.78-39.9.28v-11.42c0-6.16-1.1-7.69-1.22-7.85-.15-.19-1.5-.91-5.26-.91-15.48,0-21,12.31-21.02,14.95v43.06h-41.63Z"/>
          <path class="cls-3" d="M207.12,128.34c-23.97,0-42.05-15.09-42.05-35.1,0-9.82,4.24-18,11.62-23.67h-3.68l-.34-36.33h55.17c30.59,0,46.1,15,46.1,44.58v12.55h12.51v36.83h-44.92v-2.7c-1.89-1.22-3.58-2.83-4.93-4.81-8.36,5.59-18.46,8.64-29.48,8.64ZM207.91,93.64c1.32.57,3.49,1.15,6.42,1.15,1.94,0,3.68-.28,5.24-.73-2.33-.67-4.65-1.11-6.75-1.11-1.86,0-3.63.31-4.9.69Z"/>
          <path class="cls-3" d="M252.54,158.67V33.24h41.63v4.22c7.84-3.39,16.66-5.35,25.31-5.35,12.99,0,25.02,4.25,33.86,11.98,10.07,8.8,15.4,21.25,15.4,36.01s-5.43,27.42-15.7,36.28c-8.94,7.71-21.04,11.96-34.06,11.96-8.86,0-17.32-2.06-24.81-5.83v36.17h-41.63ZM312.28,65.78c-5.41,0-17.98,1.21-17.98,12.42,0,8.77,7.26,14.44,18.49,14.44,10.3,0,14.32-3.84,14.32-13.69,0-8.14-2.48-13.18-14.82-13.18Z"/>
          <path class="cls-3" d="M409.39,127.2v-47.23c0-10.32-2.51-10.78-7.75-10.78-13.52,0-20.12,11.9-20.26,14.98v43.04h-41.64V12.13h41.64v25.25c6.88-3.73,14.87-5.53,24.18-5.53,28.31,0,45.21,16.52,45.21,44.2v51.15h-41.38Z"/>
          <path class="cls-3" d="M416.09,127.07v-36.83h21.61v-20.67h-21.61v-36.33h20.63c-1.64-3.15-2.55-6.8-2.55-10.78,0-13.01,9.82-22.46,23.35-22.46s23.35,9.45,23.35,22.46c0,7.27-3.03,13.44-8.04,17.48,4.2,4.25,6.53,10.37,6.53,17.91v32.39h21.36v36.83h-84.61Z"/>
          <path class="cls-3" d="M515.28,128.97c-14.42,0-27.8-4.23-37.66-11.9-11.31-8.8-17.54-21.75-17.54-36.47s6.7-28.71,18.86-37.55c9.94-7.22,23.07-11.2,36.97-11.2,24.47,0,51.73,13.11,53.78,41.88l.09,1.22h4.51l-1.91,12.99c-1.89,12.83-9.46,23.97-21.33,31.37-9.99,6.23-22.69,9.66-35.76,9.66ZM515.02,65.52c-3.73,0-15.08,0-15.08,15.08,0,6.9,1.71,14.82,15.08,14.82,8.71,0,15.82-4.05,17.03-9.55h-2.35l-.24-11.1c-.15-6.82-7.56-9.25-14.45-9.25Z"/>
        </g>
        <g>
          <path class="cls-2" d="M116.24,38.01h-35.26c-1.64.76-2.27,5.94-2.27,9.23,19.97,0,28.31,7.96,28.44,20.98.38,17.82-12.01,22.75-30.21,22.75h-21.36c-2.53,0-4.17,1.77-5.06,4.8-1.01,3.41-.25,5.69,2.28,5.69l31.47.13c26.04.13,32.36,10.49,32.48,22.88.25,17.19-11.75,23.13-32.23,23l-43.48-.13c-18.71,0-29.7-5.69-29.7-20.98s9.86-21.11,28.18-21.11l6.57-16.68c-13.65.38-25.66-5.69-25.78-21.23,0-15.93,11.5-22.75,29.07-22.75h10.62c4.17,0,7.96,3.41,11.38,5.94l2.53-3.41c-4.04-3.54-9.1-7.08-8.97-14.28,0-5.06,3.41-8.59,9.73-8.59h41.71l-.13,13.78ZM80.22,114.22l-33.24-.25c-10.11-.13-15.42,3.79-15.17,11.12.38,6.95,5.56,10.36,14.16,10.36l35.26.25c9.86.13,14.79-3.41,14.79-10.87-.13-7.2-4.8-10.74-15.8-10.62ZM73.77,56.33l-20.1-.25c-9.86-.13-14.66,5.81-14.41,12.64.38,6.95,5.18,11,14.03,11.25l20.85.38c9.35.13,14.28-5.06,14.28-12.64,0-6.57-5.44-11.5-14.66-11.38Z"/>
          <path class="cls-2" d="M192.58,77.82l-17.69.13c0-13.14-4.04-20.1-17.82-20.1-21.87,0-32.36,17.44-32.36,26.29v31.72h-18.96V44.58h18.96v11.5l-2.78,7.71h4.3c8.09-14.91,19.59-20.6,34.38-20.6,17.57,0,33.11,8.09,31.98,34.63Z"/>
          <path class="cls-2" d="M205.99,72.26c16.56,0,29.07,7.46,37.66,13.14.13-2.27,0-7.33,0-9.35,0-12.64-6.19-17.82-22.5-17.82h-36.91l-.13-13.65h43.73c24.01,0,34.76,9.98,34.76,33.24v23.89h12.51v14.16h-22.24v-.13l-2.4.13c-4.04,0-5.81-4.42-5.81-7.33,0-4.04,2.4-11.5,3.67-13.4l-3.79-2.02c-8.47,18.96-25.53,23.89-37.41,23.89-15.55,0-30.71-8.59-30.71-23.76s14.16-20.98,29.57-20.98ZM214.33,106.13c18.07,0,25.78-15.04,25.78-15.04,0,0-14.53-9.48-27.3-9.48-5.44,0-17.44,1.77-17.44,11.88,0,8.34,9.35,12.64,18.96,12.64Z"/>
          <path class="cls-2" d="M280.81,93.87h-3.92l5.94,12.77v40.7h-18.96V44.58h18.96v8.21l-5.69,8.47h4.3c6.07-9.73,21.99-17.82,38.04-17.82,19.84,0,37.92,12.26,37.92,36.65s-18.58,36.91-38.42,36.91c-18.2,0-31.85-10.49-38.17-23.13ZM282.96,78.2c0,13.52,10.36,25.78,29.83,25.78,17.69,0,25.66-10.11,25.66-25.02s-8.47-24.52-26.16-24.52-29.32,9.48-29.32,23.76Z"/>
          <path class="cls-2" d="M439.43,76.05v39.81h-18.71v-35.89c0-8.47-1.39-22.12-19.08-22.12-20.1,0-31.6,17.44-31.6,26.29v31.72h-18.96V23.47h18.96v32.61l-2.78,7.71h4.3c8.34-15.29,19.08-20.6,34-20.6,16.18,0,33.87,6.19,33.87,32.86Z"/>
          <path class="cls-2" d="M427.43,101.58h21.61v-43.35h-21.61v-13.65h27.3c10.11,0,13.27,5.69,13.27,13.27v43.73h21.36v14.16h-61.93v-14.16ZM457.51,11.34c7.2,0,12.01,4.42,12.01,11.12s-4.8,11.25-12.01,11.25-12.01-4.55-12.01-11.25,4.8-11.12,12.01-11.12Z"/>
          <path class="cls-2" d="M561.15,86.29c-3.03,20.6-24.65,31.34-45.88,31.34-23.38,0-43.86-13.02-43.86-37.03,0-25.78,23-37.41,44.49-37.41,20.1,0,40.95,9.98,42.47,31.34h-17.57c-.25-11.88-10.36-20.35-25.78-20.35-18.45,0-26.42,12.26-26.42,26.42,0,18.2,11.38,26.16,26.42,26.16s27.17-8.97,28.44-20.47h17.69Z"/>
        </g>
        <g>
          <path class="cls-1" d="M116.24,38.01h-35.26c-1.64.76-2.27,5.94-2.27,9.23,19.97,0,28.31,7.96,28.44,20.98.38,17.82-12.01,22.75-30.21,22.75h-21.36c-2.53,0-4.17,1.77-5.06,4.8-1.01,3.41-.25,5.69,2.28,5.69l31.47.13c26.04.13,32.36,10.49,32.48,22.88.25,17.19-11.75,23.13-32.23,23l-43.48-.13c-18.71,0-29.7-5.69-29.7-20.98s9.86-21.11,28.18-21.11l6.57-16.68c-13.65.38-25.66-5.69-25.78-21.23,0-15.93,11.5-22.75,29.07-22.75h10.62c4.17,0,7.96,3.41,11.38,5.94l2.53-3.41c-4.04-3.54-9.1-7.08-8.97-14.28,0-5.06,3.41-8.59,9.73-8.59h41.71l-.13,13.78ZM80.22,114.22l-33.24-.25c-10.11-.13-15.42,3.79-15.17,11.12.38,6.95,5.56,10.36,14.16,10.36l35.26.25c9.86.13,14.79-3.41,14.79-10.87-.13-7.2-4.8-10.74-15.8-10.62ZM73.77,56.33l-20.1-.25c-9.86-.13-14.66,5.81-14.41,12.64.38,6.95,5.18,11,14.03,11.25l20.85.38c9.35.13,14.28-5.06,14.28-12.64,0-6.57-5.44-11.5-14.66-11.38Z"/>
          <path class="cls-1" d="M192.58,77.82l-17.69.13c0-13.14-4.04-20.1-17.82-20.1-21.87,0-32.36,17.44-32.36,26.29v31.72h-18.96V44.58h18.96v11.5l-2.78,7.71h4.3c8.09-14.91,19.59-20.6,34.38-20.6,17.57,0,33.11,8.09,31.98,34.63Z"/>
          <path class="cls-1" d="M205.99,72.26c16.56,0,29.07,7.46,37.66,13.14.13-2.27,0-7.33,0-9.35,0-12.64-6.19-17.82-22.5-17.82h-36.91l-.13-13.65h43.73c24.01,0,34.76,9.98,34.76,33.24v23.89h12.51v14.16h-22.24v-.13l-2.4.13c-4.04,0-5.81-4.42-5.81-7.33,0-4.04,2.4-11.5,3.67-13.4l-3.79-2.02c-8.47,18.96-25.53,23.89-37.41,23.89-15.55,0-30.71-8.59-30.71-23.76s14.16-20.98,29.57-20.98ZM214.33,106.13c18.07,0,25.78-15.04,25.78-15.04,0,0-14.53-9.48-27.3-9.48-5.44,0-17.44,1.77-17.44,11.88,0,8.34,9.35,12.64,18.96,12.64Z"/>
          <path class="cls-1" d="M280.81,93.87h-3.92l5.94,12.77v40.7h-18.96V44.58h18.96v8.21l-5.69,8.47h4.3c6.07-9.73,21.99-17.82,38.04-17.82,19.84,0,37.92,12.26,37.92,36.65s-18.58,36.91-38.42,36.91c-18.2,0-31.85-10.49-38.17-23.13ZM282.96,78.2c0,13.52,10.36,25.78,29.83,25.78,17.69,0,25.66-10.11,25.66-25.02s-8.47-24.52-26.16-24.52-29.32,9.48-29.32,23.76Z"/>
          <path class="cls-1" d="M439.43,76.05v39.81h-18.71v-35.89c0-8.47-1.39-22.12-19.08-22.12-20.1,0-31.6,17.44-31.6,26.29v31.72h-18.96V23.47h18.96v32.61l-2.78,7.71h4.3c8.34-15.29,19.08-20.6,34-20.6,16.18,0,33.87,6.19,33.87,32.86Z"/>
          <path class="cls-1" d="M427.43,101.58h21.61v-43.35h-21.61v-13.65h27.3c10.11,0,13.27,5.69,13.27,13.27v43.73h21.36v14.16h-61.93v-14.16ZM457.51,11.34c7.2,0,12.01,4.42,12.01,11.12s-4.8,11.25-12.01,11.25-12.01-4.55-12.01-11.25,4.8-11.12,12.01-11.12Z"/>
          <path class="cls-1" d="M561.15,86.29c-3.03,20.6-24.65,31.34-45.88,31.34-23.38,0-43.86-13.02-43.86-37.03,0-25.78,23-37.41,44.49-37.41,20.1,0,40.95,9.98,42.47,31.34h-17.57c-.25-11.88-10.36-20.35-25.78-20.35-18.45,0-26.42,12.26-26.42,26.42,0,18.2,11.38,26.16,26.42,26.16s27.17-8.97,28.44-20.47h17.69Z"/>
        </g>
      </g>
      <g>
        <g>
          <path class="cls-3" d="M151.16,252.86v-49.48c0-13.44-3.85-13.44-9.18-13.44-7.19,0-12.21,5.58-12.21,13.58v49.34h-43.05v-49.61c0-12.67-3.57-13.58-9.45-13.58-8.89,0-12.48,7.54-12.48,10.69v52.5H21.47v-100.05h43.33v3.03c6.03-3.08,12.77-4.69,20.05-4.69,12.54,0,22.86,5.14,29.87,14.52,8.47-9.21,20.13-14.52,32.91-14.52,28.73,0,46.58,18.75,46.58,48.92v52.78h-43.05Z"/>
          <path class="cls-3" d="M224.18,255.06c-35.03,0-61.45-22.28-61.45-51.82,0-15.87,7.49-29.93,21.09-39.59,11.19-7.95,26.16-12.5,41.05-12.5,29.79,0,59.94,17.89,59.94,52.09,0,15.53-6.89,29.33-19.41,38.86-10.97,8.35-25.61,12.95-41.22,12.95ZM224.31,185.67c-7.4,0-18.4,4.61-18.4,17.3,0,10.83,7.4,18.4,17.99,18.4s17.57-7.39,17.57-18.4c0-8.36-4.51-17.3-17.16-17.3Z"/>
          <path class="cls-3" d="M305.27,252.86c-14.09,0-25.9-4.17-34.16-12.05-8.31-7.93-12.7-19.2-12.7-32.61,0-6.65,1.03-12.69,2.98-17.99h-13.89l-.35-37.55h21.72v-15.92l41.76-9.99-.16,25.91h26.78v37.55h-32.54c-2.52,0-4.07.4-4.6,1.2-.68,1.03-1.83,3.89-1.83,11.56,0,11.79,2.49,11.79,7.94,11.79h30.89v38.1h-31.85Z"/>
          <path class="cls-3" d="M297.78,252.86v-38.1h23.54v-24.55h-23.54v-37.55h23.22c-2.26-3.61-3.53-7.95-3.53-12.76,0-13.59,10.27-23.45,24.42-23.45s24.42,9.86,24.42,23.45c0,8.03-3.55,14.77-9.34,18.96,4.94,4.47,7.69,11.19,7.69,19.59v36.3h23.27v38.1h-90.14Z"/>
          <path class="cls-3" d="M407.15,255.06c-35.03,0-61.45-22.28-61.45-51.82,0-15.87,7.49-29.93,21.09-39.59,11.19-7.95,26.16-12.5,41.05-12.5,29.79,0,59.94,17.89,59.94,52.09,0,15.53-6.89,29.33-19.41,38.86-10.97,8.35-25.61,12.95-41.22,12.95ZM407.29,185.67c-7.4,0-18.4,4.61-18.4,17.3,0,10.83,7.4,18.4,17.99,18.4s17.57-7.39,17.57-18.4c0-8.36-4.51-17.3-17.16-17.3Z"/>
          <path class="cls-3" d="M511.6,253v-50.44c0-12.16-3.37-12.76-9.31-12.76-15.79,0-21.7,14.36-21.7,17.3v45.9h-43.33v-100.33h43.33v5.49c7.93-4.69,17.28-7,28.18-7,29.17,0,45.9,17.18,45.9,47.14v54.71h-43.05Z"/>
        </g>
        <g>
          <path class="cls-2" d="M53.46,164.14v10.19l-4.82,11.43h3.85c7.43-16.38,19.41-23.27,32.35-23.27,11.56,0,22.03,5.78,26.57,22.3h4.41c5.78-13.91,17.76-22.3,31.8-22.3,20.93,0,35.25,12.12,35.25,37.59v41.44h-20.38v-38.14c0-15.56-5.23-24.78-20.51-24.78-13.63,0-23.54,10.74-23.54,24.92v38h-20.38v-38.27c0-15.56-5.51-24.92-20.79-24.92s-23.82,12.67-23.82,22.03v41.17h-20.65v-77.38h20.65Z"/>
          <path class="cls-2" d="M273.47,203.25c0,25.61-23.41,40.48-49.29,40.48s-50.12-15.42-50.12-40.48c0-26.57,26.57-40.75,50.8-40.75s48.6,13.08,48.6,40.75ZM223.9,232.71c17.07,0,28.91-12.8,28.91-29.74,0-15.7-10.33-28.64-28.5-28.64-19.83,0-29.74,15.28-29.74,28.64,0,16.8,12.12,29.74,29.33,29.74Z"/>
          <path class="cls-2" d="M299.07,164.01h26.85v14.87h-21.2c-13.77,0-17.76,8.67-17.76,24.09,0,13.91,3.99,23.13,19.27,23.13h19.55v15.42h-20.51c-22.85,0-35.52-12.67-35.52-33.32,0-15.42,6.47-27.67,22.3-30.43v-4.54l-14.73,5.65h-18.59l-.14-14.87h21.62v-18.31l19-4.54-.14,22.85Z"/>
          <path class="cls-2" d="M309.12,226.1h23.54v-47.22h-23.54v-14.87h29.74c11.01,0,14.46,6.2,14.46,14.46v47.64h23.27v15.42h-67.46v-15.42ZM341.89,127.8c7.85,0,13.08,4.82,13.08,12.12s-5.23,12.25-13.08,12.25-13.08-4.96-13.08-12.25,5.23-12.12,13.08-12.12Z"/>
          <path class="cls-2" d="M456.44,203.25c0,25.61-23.41,40.48-49.29,40.48s-50.12-15.42-50.12-40.48c0-26.57,26.57-40.75,50.8-40.75s48.6,13.08,48.6,40.75ZM406.87,232.71c17.07,0,28.91-12.8,28.91-29.74,0-15.7-10.33-28.64-28.5-28.64-19.83,0-29.74,15.28-29.74,28.64,0,16.8,12.12,29.74,29.33,29.74Z"/>
          <path class="cls-2" d="M543.31,198.29v43.37h-20.38v-39.1c0-9.22-1.51-24.09-20.65-24.09-21.62,0-33.04,19-33.04,28.64v34.56h-20.65v-77.65h20.65v12.53l-3.03,8.4h4.68c8.81-16.25,21.34-22.44,37.86-22.44,18.04,0,34.56,7.57,34.56,35.8Z"/>
        </g>
        <g>
          <path class="cls-1" d="M53.46,164.14v10.19l-4.82,11.43h3.85c7.43-16.38,19.41-23.27,32.35-23.27,11.56,0,22.03,5.78,26.57,22.3h4.41c5.78-13.91,17.76-22.3,31.8-22.3,20.93,0,35.25,12.12,35.25,37.59v41.44h-20.38v-38.14c0-15.56-5.23-24.78-20.51-24.78-13.63,0-23.54,10.74-23.54,24.92v38h-20.38v-38.27c0-15.56-5.51-24.92-20.79-24.92s-23.82,12.67-23.82,22.03v41.17h-20.65v-77.38h20.65Z"/>
          <path class="cls-1" d="M273.47,203.25c0,25.61-23.41,40.48-49.29,40.48s-50.12-15.42-50.12-40.48c0-26.57,26.57-40.75,50.8-40.75s48.6,13.08,48.6,40.75ZM223.9,232.71c17.07,0,28.91-12.8,28.91-29.74,0-15.7-10.33-28.64-28.5-28.64-19.83,0-29.74,15.28-29.74,28.64,0,16.8,12.12,29.74,29.33,29.74Z"/>
          <path class="cls-1" d="M299.07,164.01h26.85v14.87h-21.2c-13.77,0-17.76,8.67-17.76,24.09,0,13.91,3.99,23.13,19.27,23.13h19.55v15.42h-20.51c-22.85,0-35.52-12.67-35.52-33.32,0-15.42,6.47-27.67,22.3-30.43v-4.54l-14.73,5.65h-18.59l-.14-14.87h21.62v-18.31l19-4.54-.14,22.85Z"/>
          <path class="cls-1" d="M309.12,226.1h23.54v-47.22h-23.54v-14.87h29.74c11.01,0,14.46,6.2,14.46,14.46v47.64h23.27v15.42h-67.46v-15.42ZM341.89,127.8c7.85,0,13.08,4.82,13.08,12.12s-5.23,12.25-13.08,12.25-13.08-4.96-13.08-12.25,5.23-12.12,13.08-12.12Z"/>
          <path class="cls-1" d="M456.44,203.25c0,25.61-23.41,40.48-49.29,40.48s-50.12-15.42-50.12-40.48c0-26.57,26.57-40.75,50.8-40.75s48.6,13.08,48.6,40.75ZM406.87,232.71c17.07,0,28.91-12.8,28.91-29.74,0-15.7-10.33-28.64-28.5-28.64-19.83,0-29.74,15.28-29.74,28.64,0,16.8,12.12,29.74,29.33,29.74Z"/>
          <path class="cls-1" d="M543.31,198.29v43.37h-20.38v-39.1c0-9.22-1.51-24.09-20.65-24.09-21.62,0-33.04,19-33.04,28.64v34.56h-20.65v-77.65h20.65v12.53l-3.03,8.4h4.68c8.81-16.25,21.34-22.44,37.86-22.44,18.04,0,34.56,7.57,34.56,35.8Z"/>
        </g>
      </g>
    </g>
  </g>
</svg>