<?xml version="1.0" encoding="UTF-8"?>
<svg id="_圖層_2" data-name="圖層 2" xmlns="http://www.w3.org/2000/svg" viewBox="0 0 952.79 172.11">
  <defs>
    <style>
      .cls-1 {
        fill: #fff;
      }

      .cls-2 {
        fill: transparent;
      }
    </style>
  </defs>
  <g id="_圖層_1-2" data-name="圖層 1">
    <g>
      <g>
        <path class="cls-2" d="M44.06,138.13c-17.42,0-30.06-12.64-30.06-30.06v-54.49l-14,.14V13.05h60.39v83.73h18.35v41.36h-34.68Z"/>
        <path class="cls-2" d="M29.18,138.13v-41.08h23.24v-20.76h-23.24v-40.54h21.73c-1.48-3.23-2.29-6.9-2.29-10.85,0-14.42,10.87-24.89,25.84-24.89s25.84,10.47,25.84,24.89c0,7.75-3.11,14.37-8.28,18.85,4.29,4.67,6.65,11.22,6.65,19.21v34.1h22.97v41.08H29.18Z"/>
        <path class="cls-2" d="M205.79,138.13v-50.58c0-11.53-2.45-11.53-7.32-11.53-7.12,0-10.31,5.86-10.31,11.67v50.44h-45.98v-50.72c0-11.67-2.86-11.67-7.59-11.67-8.05,0-10.58,6.87-10.58,8.82v53.57h-46.25V35.88h46.25v2.08c5.57-2.44,11.64-3.72,18.06-3.72,12.25,0,22.44,4.73,29.63,13.41,8.55-8.53,19.93-13.41,32.35-13.41,29.44,0,47.73,19.17,47.73,50.04v53.84h-45.98Z"/>
        <path class="cls-2" d="M223.87,138.13v-41.08h23.24v-20.76h-23.24v-40.54h21.73c-1.48-3.23-2.29-6.9-2.29-10.85,0-14.42,10.87-24.89,25.84-24.89s25.84,10.47,25.84,24.89c0,7.75-3.11,14.37-8.28,18.85,4.29,4.67,6.65,11.22,6.65,19.21v34.1h22.97v41.08h-92.46Z"/>
        <path class="cls-2" d="M345.18,138.27v-51.53c0-10.85-2.49-10.85-7.46-10.85-14.01,0-19.62,12.75-19.69,15.35v47.03h-46.25V35.75h46.25v4.2c7.49-3.81,16.16-5.69,26.08-5.69,29.9,0,47.05,17.59,47.05,48.27v55.74h-45.98Z"/>
        <path class="cls-2" d="M414.72,139.49c-26.2,0-45.96-16.54-45.96-38.48,0-10.06,4.04-18.56,11.14-24.72h-40.62l-.38-40.54h98.1c22.95,0,50.31,8.45,50.31,48.68v12.76h13.45v41.08h-49.78v-3.15c-1.84-1.27-3.42-2.86-4.71-4.67-9,5.86-19.79,9.04-31.56,9.04ZM418.6,101.57c1.09.22,2.39.37,3.88.37.76,0,1.5-.04,2.21-.12-1.33-.25-2.62-.39-3.84-.39-.77,0-1.53.05-2.24.14Z"/>
        <path class="cls-2" d="M454.07,138.13v-41.36h18.35V13.05h60.39v40.67l-14-.14v54.49c0,17.42-12.64,30.06-30.06,30.06h-34.68Z"/>
        <path class="cls-2" d="M531.91,140.04c-56.96,0-58.6-35.4-58.6-39.44v-12.93h9.92c-2.73-4.33-4.34-9.75-4.34-16.56,0-8.64,4.03-36.85,55.88-36.85,34.8,0,56.42,15.63,56.42,40.8v12.93h-3.99c2.43,4.07,3.85,9.1,3.85,15.34,0,11.04-5.76,36.72-59.14,36.72Z"/>
        <path class="cls-2" d="M563.28,172.11v-40.95h11.12c-3.13-2.74-5.63-6.3-7.54-10.71l-40.01-84.71h50.22l20.68,45.56,19.39-45.56h48.54l-38.11,90.66,18.32,45.71h-82.61Z"/>
        <path class="cls-2" d="M686.19,138.27v-51.53c0-10.85-2.49-10.85-7.46-10.85-14.01,0-19.61,12.75-19.69,15.35v47.03h-46.25V35.75h46.25v4.19c7.49-3.81,16.16-5.69,26.08-5.69,29.9,0,47.05,17.59,47.05,48.27v55.74h-45.98Z"/>
        <path class="cls-2" d="M759.61,138.13c-29.16,0-48-17.98-48-45.82,0-5.82.77-11.19,2.24-16.02h-3.53l-73.16-40.54h84.77v-15.35l44.72-10.7-.16,26.04h26.43v40.54h-33.86c-2.27,0-3.09.4-3.15.43.03,0-1.45,1.99-1.45,10.42,0,9.9,1.17,9.9,6.1,9.9h32.23v41.08h-33.18Z"/>
        <path class="cls-2" d="M834.69,138.27v-51.53c0-10.85-2.54-10.85-7.59-10.85-14.55,0-20.87,12.79-21.05,15.41v46.98h-46.25V13.05h46.25v26.66c7.25-3.67,15.6-5.45,25.26-5.45,30.91,0,49.36,18.05,49.36,48.27v55.74h-45.98Z"/>
        <path class="cls-2" d="M893.51,140.04c-56.96,0-58.6-35.4-58.6-39.44v-12.93h9.91c-2.73-4.33-4.34-9.75-4.34-16.56,0-8.64,4.03-36.85,55.88-36.85,34.8,0,56.42,15.63,56.42,40.8v12.93h-3.99c2.43,4.07,3.85,9.1,3.85,15.34,0,11.04-5.76,36.72-59.14,36.72Z"/>
      </g>
      <g>
        <path class="cls-1" d="M26.93,40.52l-14,.14v-14.68h34.52v83.73h18.35v15.49h-21.75c-10.33,0-17.13-6.93-17.13-17.13V40.52Z"/>
        <path class="cls-1" d="M42.11,109.98h23.24v-46.62h-23.24v-14.68h29.36c10.87,0,14.27,6.12,14.27,14.27v47.03h22.97v15.22H42.11v-15.22ZM74.46,12.93c7.75,0,12.91,4.76,12.91,11.96s-5.16,12.1-12.91,12.1-12.91-4.89-12.91-12.1,5.16-11.96,12.91-11.96Z"/>
        <path class="cls-1" d="M111.07,48.81v10.06l-4.76,11.28h3.81c7.34-16.17,19.16-22.97,31.94-22.97,11.42,0,21.75,5.71,26.23,22.02h4.35c5.71-13.73,17.53-22.02,31.4-22.02,20.66,0,34.8,11.96,34.8,37.11v40.91h-20.12v-37.65c0-15.36-5.16-24.47-20.25-24.47-13.46,0-23.24,10.6-23.24,24.6v37.51h-20.12v-37.79c0-15.36-5.44-24.6-20.52-24.6s-23.51,12.5-23.51,21.75v40.64h-20.39V48.81h20.39Z"/>
        <path class="cls-1" d="M236.8,109.98h23.24v-46.62h-23.24v-14.68h29.36c10.87,0,14.27,6.12,14.27,14.27v47.03h22.97v15.22h-66.6v-15.22ZM269.15,12.93c7.75,0,12.91,4.76,12.91,11.96s-5.16,12.1-12.91,12.1-12.91-4.89-12.91-12.1,5.17-11.96,12.91-11.96Z"/>
        <path class="cls-1" d="M378.23,82.52v42.82h-20.12v-38.6c0-9.11-1.5-23.79-20.39-23.79-21.34,0-32.62,18.76-32.62,28.27v34.12h-20.39V48.68h20.39v12.37l-2.99,8.29h4.62c8.7-16.04,21.07-22.16,37.38-22.16,17.81,0,34.12,7.48,34.12,35.34Z"/>
        <path class="cls-1" d="M413.5,78.44c17.81,0,31.26,8.02,40.5,14.14.14-2.45,0-7.88,0-10.06,0-13.59-6.66-19.16-24.19-19.16h-77.71l-.14-14.68h85.05c25.82,0,37.38,10.74,37.38,35.75v25.69h13.46v15.22h-23.92v-.14l-2.58.14c-4.35,0-6.25-4.76-6.25-7.88,0-4.35,2.58-12.37,3.94-14.41l-4.08-2.17c-9.11,20.39-27.46,25.69-40.23,25.69-16.72,0-33.03-9.24-33.03-25.55s15.22-22.56,31.81-22.56ZM422.47,114.87c19.44,0,27.73-16.17,27.73-16.17,0,0-15.63-10.19-29.36-10.19-5.84,0-18.76,1.9-18.76,12.78,0,8.97,10.06,13.59,20.39,13.59Z"/>
        <path class="cls-1" d="M505.88,108.07c0,10.19-6.8,17.13-17.13,17.13h-21.75v-15.49h18.35s0-83.73,0-83.73h34.52v14.68s-14-.14-14-.14v67.55Z"/>
        <path class="cls-1" d="M578.12,103.32c0,15.36-16.72,23.79-46.21,23.79-36.97,0-45.67-16.72-45.67-26.5h19.57c.81,9.79,13.59,14,26.78,14,20.52,0,27.73-3.4,27.73-11.28,0-19.85-68.5,1.09-68.5-32.21,0-14.95,14.95-23.92,42.95-23.92,23.51,0,43.49,7.88,43.49,27.86h-18.49c-1.09-10.74-10.33-15.22-25.01-15.22s-23.51,2.99-23.51,12.1c0,19.57,66.87-.14,66.87,31.4Z"/>
        <path class="cls-1" d="M646.21,48.68l-32.62,77.61,13.18,32.89h-50.56v-15.09h24.74l-7.2-19.03c-7.48-.41-12.1-2.85-15.09-9.92l-31.4-66.46h21.48l26.78,58.99-2.85,7.75h4.62l28.41-66.74h20.52Z"/>
        <path class="cls-1" d="M719.24,82.52v42.82h-20.12v-38.6c0-9.11-1.5-23.79-20.39-23.79-21.34,0-32.62,18.76-32.62,28.27v34.12h-20.39V48.68h20.39v12.37l-2.99,8.29h4.62c8.7-16.04,21.07-22.16,37.38-22.16,17.81,0,34.12,7.48,34.12,35.34Z"/>
        <path class="cls-1" d="M753.5,48.68h26.5v14.68h-20.93c-13.59,0-17.53,8.56-17.53,23.79,0,13.73,3.94,22.83,19.03,22.83h19.3v15.22h-20.25c-22.56,0-35.07-12.5-35.07-32.89,0-15.22,6.39-27.32,22.02-30.04v-4.49l-14.54,5.57h-18.35l-26.49-14.68h47.69v-18.08l18.76-4.49-.14,22.56Z"/>
        <path class="cls-1" d="M867.74,82.52v42.82h-20.12v-38.6c0-9.11-1.49-23.79-20.52-23.79-21.61,0-33.98,18.76-33.98,28.27v34.12h-20.39V25.98h20.39v35.07l-2.99,8.29h4.62c8.97-16.45,20.52-22.16,36.56-22.16,17.4,0,36.43,6.66,36.43,35.34Z"/>
        <path class="cls-1" d="M939.72,103.32c0,15.36-16.72,23.79-46.21,23.79-36.97,0-45.67-16.72-45.67-26.5h19.57c.82,9.79,13.59,14,26.78,14,20.52,0,27.73-3.4,27.73-11.28,0-19.85-68.5,1.09-68.5-32.21,0-14.95,14.95-23.92,42.95-23.92,23.51,0,43.49,7.88,43.49,27.86h-18.49c-1.09-10.74-10.33-15.22-25.01-15.22s-23.51,2.99-23.51,12.1c0,19.57,66.87-.14,66.87,31.4Z"/>
      </g>
    </g>
  </g>
</svg>