<?xml version="1.0" encoding="UTF-8"?>
<svg id="_圖層_2" data-name="圖層 2" xmlns="http://www.w3.org/2000/svg" viewBox="0 0 188.37 115.7">
  <defs>
    <style>
      .cls-1 {
        fill: #4f80ff;
      }

      .cls-2 {
        fill: #9c9c9c;
      }

      .cls-3 {
        fill: #211714;
      }

      .cls-4 {
        fill: #dbdede;
      }

      .cls-5 {
        fill: #2166ff;
      }

      .cls-6 {
        fill: #ffbf42;
      }

      .cls-7 {
        fill: #fff;
      }

      .cls-8 {
        fill: #120505;
      }
    </style>
  </defs>
  <g id="_圖層_1-2" data-name="圖層 1">
    <g>
      <path class="cls-7" d="M8.43,0h171.52c4.65,0,8.43,3.78,8.43,8.43v93.88c0,4.65-3.78,8.43-8.43,8.43H8.43c-4.65,0-8.43-3.78-8.43-8.43V8.43C0,3.78,3.78,0,8.43,0Z"/>
      <g>
        <path class="cls-3" d="M48.46,95.85c-2.01,0-3.8-1.29-4.46-3.2l-1.74-5.09-1.62,5.02c-.63,1.95-2.44,3.28-4.48,3.28h-8.91c-1.96,0-3.72-1.23-4.41-3.08l-9.4-25.2c-.54-1.45-.34-3.08.53-4.35.87-1.28,2.31-2.04,3.85-2.05,0,0,7.29-.05,7.34-.05,2,0,3.79,1.28,4.45,3.18l2.48,7.17,2.21-7.04c.62-1.97,2.44-3.32,4.49-3.32h7.31c2.07,0,3.89,1.36,4.5,3.35l2.14,6.99,2.5-7.16c.66-1.9,2.44-3.17,4.44-3.17h7.17c1.56,0,3.01.77,3.89,2.07.88,1.29,1.06,2.94.5,4.4l-9.8,25.24c-.71,1.82-2.45,3.02-4.39,3.02h-8.6Z"/>
        <path class="cls-3" d="M77.59,73.97c-3.88,0-4.91,3-4.91,4.58,0,2.96,1.92,4.94,4.78,4.94s4.64-1.94,4.64-4.94c0-1.38-.44-4.58-4.51-4.58M77.55,96.57c-11.93,0-20.93-7.71-20.93-17.92,0-5.52,2.58-10.4,7.26-13.75,3.79-2.71,8.86-4.27,13.89-4.27s9.79,1.48,13.46,4.17c4.5,3.3,6.98,8.22,6.98,13.85,0,10.39-8.69,17.92-20.66,17.92"/>
        <path class="cls-3" d="M90.95,95.89c-2.6,0-4.71-2.12-4.71-4.74v-25.29c0-2.62,2.11-4.74,4.71-4.74h6.68c1.44,0,2.73.65,3.6,1.68,2.61-1.44,5.63-2.17,9.05-2.17,5.01,0,9.15,1.56,11.96,4.51,2.9,3.04,4.25,7.33,4.02,12.72-.11,2.52-2.16,4.52-4.67,4.54,0,0-6.26.05-6.27.05-1.24,0-2.44-.49-3.32-1.38-.89-.89-1.39-2.1-1.39-3.37,0-1.38-.16-2.01-.25-2.25-.18-.05-.58-.14-1.32-.14-5.1,0-6.65,4.04-6.69,4.61v11.23c0,2.62-2.11,4.74-4.71,4.74h-6.68Z"/>
        <path class="cls-3" d="M140.8,95.85c-4.08,0-8.55-2.52-11.59-7.04v2.29c0,2.62-2.11,4.74-4.71,4.74h-6.68c-2.6,0-4.71-2.12-4.71-4.74v-32.73c0-2.62,2.11-4.74,4.71-4.74h6.68c2.6,0,4.71,2.12,4.71,4.74v8.94l5.97-5.07c.85-.72,1.93-1.12,3.04-1.12h6.99c1.97,0,3.73,1.23,4.42,3.09.68,1.86.15,3.95-1.35,5.24l-8.93,7.72c.82,2.77,2.13,4.21,2.79,4.21h3.92c2.59,0,4.69,2.1,4.71,4.7l.04,4.98c.01,1.27-.48,2.48-1.37,3.38-.88.9-2.09,1.4-3.35,1.4h-5.3Z"/>
        <path class="cls-3" d="M154.69,96.48c-19.13,0-19.68-12.1-19.68-13.49,0-2.04,1.28-3.78,3.08-4.45-.79-1.42-1.26-3.15-1.26-5.28,0-2.96,1.35-12.63,18.79-12.63,11.7,0,18.97,5.34,18.97,13.93,0,1.45-.64,2.74-1.66,3.61,1.01,1.48,1.61,3.34,1.61,5.72,0,3.78-1.93,12.59-19.86,12.59"/>
        <path class="cls-8" d="M66.86,65.86l-9.8,25.24h-8.6l-4.99-14.62-.49-4.93h-1.51l-.54,4.8-4.77,14.75h-8.91l-9.4-25.2s7.26-.05,7.31-.05l6.37,18.38v4.98h1.51v-5.02l5.75-18.34h7.31l5.61,18.34v5.02h1.52l.04-4.98,6.41-18.38h7.17Z"/>
        <path class="cls-8" d="M77.46,88.24c5.52,0,9.35-4.17,9.35-9.68,0-5.11-3.34-9.33-9.22-9.33-6.41,0-9.62,4.98-9.62,9.33,0,5.47,3.92,9.68,9.49,9.68M93.49,78.64c0,8.34-7.57,13.18-15.95,13.18s-16.21-5.02-16.21-13.18c0-8.65,8.6-13.27,16.44-13.27s15.72,4.26,15.72,13.27"/>
        <path class="cls-8" d="M121.56,77.66l-6.24.04c0-4.66-1.43-7.13-6.28-7.13-7.71,0-11.4,6.19-11.4,9.33v11.25h-6.68v-25.29h6.68v4.08l-.98,2.74h1.52c2.85-5.29,6.91-7.31,12.12-7.31,6.19,0,11.67,2.87,11.27,12.29"/>
        <path class="cls-8" d="M134.16,75.41c.85,6.01,3.88,10.72,7.97,10.72h3.92l.04,4.98h-5.3c-5.39,0-9.67-6.59-10.38-12.47h-1.6l-4.32,5.52v6.95h-6.68v-32.73h6.68v17.67l-1.65,3.14h1.38l1.69-2.87,12.3-10.45h6.99l-11.05,9.55Z"/>
        <path class="cls-8" d="M169.84,83.89c0,5.07-5.48,7.85-15.15,7.85-12.12,0-14.97-5.52-14.97-8.74h6.41c.27,3.23,4.46,4.62,8.78,4.62,6.73,0,9.09-1.12,9.09-3.72,0-6.55-22.45.36-22.45-10.63,0-4.93,4.9-7.89,14.08-7.89,7.71,0,14.26,2.6,14.26,9.19h-6.06c-.36-3.54-3.39-5.02-8.2-5.02s-7.71.99-7.71,3.99c0,6.46,21.92-.05,21.92,10.36"/>
        <path class="cls-6" d="M66.86,65.86l-9.8,25.24h-8.6l-4.99-14.62-.49-4.93h-1.51l-.54,4.8-4.77,14.75h-8.91l-9.4-25.2s7.26-.05,7.31-.05l6.37,18.38v4.98h1.51v-5.02l5.75-18.34h7.31l5.61,18.34v5.02h1.52l.04-4.98,6.41-18.38h7.17Z"/>
        <path class="cls-6" d="M77.46,88.24c5.52,0,9.35-4.17,9.35-9.68,0-5.11-3.34-9.33-9.22-9.33-6.41,0-9.62,4.98-9.62,9.33,0,5.47,3.92,9.68,9.49,9.68M93.49,78.64c0,8.34-7.57,13.18-15.95,13.18s-16.21-5.02-16.21-13.18c0-8.65,8.6-13.27,16.44-13.27s15.72,4.26,15.72,13.27"/>
        <path class="cls-6" d="M121.56,77.66l-6.24.04c0-4.66-1.43-7.13-6.28-7.13-7.71,0-11.4,6.19-11.4,9.33v11.25h-6.68v-25.29h6.68v4.08l-.98,2.74h1.52c2.85-5.29,6.91-7.31,12.12-7.31,6.19,0,11.67,2.87,11.27,12.29"/>
        <path class="cls-6" d="M134.16,75.41c.85,6.01,3.88,10.72,7.97,10.72h3.92l.04,4.98h-5.3c-5.39,0-9.67-6.59-10.38-12.47h-1.6l-4.32,5.52v6.95h-6.68v-32.73h6.68v17.67l-1.65,3.14h1.38l1.69-2.87,12.3-10.45h6.99l-11.05,9.55Z"/>
        <path class="cls-6" d="M169.84,83.89c0,5.07-5.48,7.85-15.15,7.85-12.12,0-14.97-5.52-14.97-8.74h6.41c.27,3.23,4.46,4.62,8.78,4.62,6.73,0,9.09-1.12,9.09-3.72,0-6.55-22.45.36-22.45-10.63,0-4.93,4.9-7.89,14.08-7.89,7.71,0,14.26,2.6,14.26,9.19h-6.06c-.36-3.54-3.39-5.02-8.2-5.02s-7.71.99-7.71,3.99c0,6.46,21.92-.05,21.92,10.36"/>
        <path class="cls-8" d="M14.1,18.21c0,1.86,1.51,3.37,3.37,3.37h60.32c1.86,0,3.37-1.51,3.37-3.37s-1.51-3.37-3.37-3.37H17.47c-1.86,0-3.37,1.51-3.37,3.37,0,0,0-1.86,0,0"/>
        <path class="cls-7" d="M20.25,18.24c0-.62-.32-1.08-1.16-1.08-.89,0-1.31.52-1.31,1.09,0,.65.54,1.15,1.32,1.15.72,0,1.15-.44,1.15-1.16M21.09,18.2c0,1.09-.82,1.7-1.7,1.7-.77,0-1.49-.47-1.68-.84h-.19l.25.42v.38h-.84v-4.11h.84v1.34l-.26.52h.17c.37-.62.95-.98,1.67-.98.91,0,1.73.48,1.73,1.57"/>
        <path class="cls-7" d="M25.49,16.69l-1.35,3.21.54,1.36h-2.09v-.62h1.02l-.3-.79c-.31-.02-.5-.12-.62-.41l-1.3-2.75h.89l1.11,2.44-.12.32h.19l1.17-2.76h.85Z"/>
      </g>
      <polygon class="cls-7" points="30.66 17.3 28.36 19.05 27.89 19.07 27.89 19.25 30.66 19.23 30.66 19.85 27.16 19.85 27.16 19.23 30.15 17.16 30.08 16.99 29.36 17.29 27.16 17.3 27.16 16.69 30.66 16.69 30.66 17.3"/>
      <g>
        <path class="cls-7" d="M35.25,18.09v1.77h-.83v-1.59c0-.38-.06-.98-.85-.98-.89,0-1.4.77-1.4,1.17v1.41h-.84v-4.11h.84v1.45l-.12.34h.19c.37-.68.85-.92,1.51-.92.72,0,1.5.28,1.5,1.46"/>
        <path class="cls-7" d="M37.07,15.21c.32,0,.53.2.53.49s-.21.5-.53.5-.53-.2-.53-.5.21-.49.53-.49M35.73,19.22h.96v-1.93h-.96v-.61h1.21c.45,0,.59.25.59.59v1.94h.95v.63h-2.75v-.63Z"/>
        <path class="cls-7" d="M39.57,18.25c0,.67.37,1.12,1.15,1.12.86,0,1.32-.54,1.32-1.15s-.51-1.1-1.31-1.1-1.16.44-1.16,1.12M38.73,18.3c0-1.08.8-1.66,1.76-1.66.75,0,1.35.36,1.62.79h.18l-.25-.38v-.37h.84v4.5h-.84v-1.74l.26-.57h-.17c-.28.56-.89,1.03-1.71,1.03-.87,0-1.7-.51-1.7-1.61"/>
        <path class="cls-7" d="M44.8,15.21c.32,0,.53.2.53.49s-.21.5-.53.5-.53-.2-.53-.5.21-.49.53-.49M43.46,19.22h.96v-1.93h-.96v-.61h1.21c.45,0,.59.25.59.59v1.94h.95v.63h-2.75v-.63Z"/>
        <path class="cls-7" d="M48.15,19.43c.8,0,1.15-.67,1.15-.67,0,0-.65-.42-1.21-.42-.24,0-.78.08-.78.53,0,.37.42.56.84.56M47.78,17.92c.74,0,1.29.33,1.67.58,0-.1,0-.33,0-.42,0-.56-.28-.79-1-.79h-1.64v-.61s1.94,0,1.94,0c1.07,0,1.54.44,1.54,1.48v1.06h.56v.63h-.99s-.11,0-.11,0c-.18,0-.26-.2-.26-.33,0-.18.11-.51.16-.59l-.17-.09c-.38.84-1.13,1.06-1.66,1.06-.69,0-1.36-.38-1.36-1.06s.63-.93,1.31-.93"/>
        <path class="cls-7" d="M55.23,18.09v1.77h-.83v-1.59c0-.38-.06-.98-.84-.98-.88,0-1.35.77-1.35,1.17v1.41h-.84v-3.17h.84v.51l-.12.34h.19c.36-.66.87-.92,1.54-.92.74,0,1.41.31,1.41,1.46"/>
        <path class="cls-7" d="M58.48,17.21h-.89c-.44-.02-.65.25-.64.55.02.31.23.49.62.5l.93.02c.42,0,.63-.22.63-.56,0-.29-.24-.51-.65-.51M58.76,19.78h-1.48c-.45-.02-.69.16-.67.48.02.31.25.46.63.46h1.57c.44.02.66-.14.66-.47,0-.32-.21-.48-.7-.47M60.36,16.4h-1.57c-.07.03-.1.26-.1.41.89,0,1.26.35,1.26.93.02.79-.53,1.01-1.34,1.01h-.95c-.11,0-.18.08-.22.21-.05.15-.01.25.1.25h1.4c1.16.01,1.44.47,1.44,1.02.01.76-.52,1.03-1.43,1.02h-1.93c-.83,0-1.32-.26-1.32-.94s.44-.94,1.25-.94l.29-.74c-.61.02-1.14-.25-1.15-.94,0-.71.51-1.01,1.29-1.01h.47c.19,0,.35.15.51.26l.11-.15c-.18-.16-.4-.31-.4-.63,0-.22.15-.38.43-.38h1.85v.61Z"/>
        <path class="cls-7" d="M66.18,18.54c-.14.92-1.1,1.39-2.04,1.39-1.04,0-1.95-.58-1.95-1.65,0-1.14,1.02-1.66,1.98-1.66.89,0,1.82.44,1.89,1.39h-.78c-.01-.53-.46-.9-1.15-.9-.82,0-1.17.54-1.17,1.17,0,.81.51,1.16,1.17,1.16s1.21-.4,1.26-.91h.79Z"/>
        <path class="cls-7" d="M70.76,18.09v1.77h-.83v-1.59c0-.38-.06-.98-.85-.98-.89,0-1.4.77-1.4,1.17v1.41h-.84v-4.11h.84v1.45l-.12.34h.19c.37-.68.85-.92,1.51-.92.72,0,1.51.28,1.51,1.46"/>
        <path class="cls-7" d="M72.58,15.21c.32,0,.53.2.53.49s-.21.5-.53.5-.53-.2-.53-.5.21-.49.53-.49M71.25,19.22h.96v-1.93h-.96v-.61h1.21c.45,0,.59.25.59.59v1.94h.95v.63h-2.75v-.63Z"/>
        <path class="cls-7" d="M78.39,18.09v1.77h-.83v-1.59c0-.38-.06-.98-.84-.98-.88,0-1.35.77-1.35,1.17v1.41h-.84v-3.17h.84v.51l-.12.34h.19c.36-.66.87-.92,1.54-.92.74,0,1.41.31,1.41,1.46"/>
        <path class="cls-4" d="M60.16,61.03c-2.66,0-4.82-2.12-4.82-4.74v-12.22c0-2.4-.5-2.99-.51-2.99,0,0-.32-.21-1.35-.21-2.1,0-2.84,1.75-2.84,3.24v12.17c0,2.62-2.16,4.74-4.82,4.74h-6.63c-2.66,0-4.82-2.12-4.82-4.74v-12.26c0-3.24-.53-3.24-1.95-3.24-2.35,0-2.93,2.03-2.93,2.32v13.19c0,2.62-2.16,4.74-4.82,4.74h-6.72c-2.66,0-4.82-2.12-4.82-4.74v-24.79c0-2.62,2.16-4.74,4.82-4.74h6.72c1.2,0,2.29.43,3.14,1.14,2.14-1.1,4.53-1.67,7.08-1.67,4,0,7.37,1.44,9.81,4.1,2.86-2.61,6.58-4.1,10.62-4.1,10.05,0,16.28,6.43,16.28,16.78v13.28c0,2.62-2.16,4.74-4.82,4.74h-6.63Z"/>
        <path class="cls-4" d="M83.23,61.69c-12.04,0-20.45-7.26-20.45-17.67s8.3-17.8,20.18-17.8c5.9,0,10.85,1.86,14.33,5.38,3.17,3.2,4.8,7.5,4.74,12.45.17.16.33.33.48.52.91,1.14,1.25,2.63.91,4.04-1.92,7.95-9.85,13.08-20.19,13.08"/>
        <path class="cls-4" d="M96.89,61.03c-2.66,0-4.82-2.12-4.82-4.74v-4.94c0-2.62,2.16-4.74,4.82-4.74h2.84v-5.65h-2.84c-2.66,0-4.82-2.12-4.82-4.74v-4.76c0-2.62,2.16-4.74,4.82-4.74h2.1c-.33-.92-.51-1.92-.51-2.98,0-5,3.82-8.62,9.07-8.62s9.07,3.63,9.07,8.62c0,2.45-.96,4.6-2.56,6.15,1.3,1.58,2.02,3.7,2.02,6.2v10.52h2.75c2.66,0,4.82,2.12,4.82,4.74v4.94c0,2.62-2.16,4.74-4.82,4.74h-21.95Z"/>
        <path class="cls-4" d="M131.16,61.03c-9.95,0-16.37-6.05-16.37-15.42,0-1.68.19-3.26.57-4.7-2.33-.31-4.13-2.27-4.15-4.65l-.05-4.76c-.01-1.26.49-2.48,1.39-3.38.9-.9,2.14-1.4,3.42-1.4h2.22v-1.12c0-2.19,1.53-4.1,3.7-4.61l6.18-1.46c.37-.09.75-.13,1.12-.13,1.08,0,2.13.36,2.99,1.03,1.16.91,1.83,2.29,1.82,3.74l-.02,2.55h3.89c2.66,0,4.82,2.12,4.82,4.74v4.76c0,2.62-2.16,4.74-4.82,4.74h-6.9c-.3,0-.5.02-.63.04-.12.31-.33,1.12-.33,2.93,0,1.68.24,2.34.33,2.54.13.04.47.13,1.13.13h6.36c2.66,0,4.82,2.12,4.82,4.74v4.94c0,2.62-2.16,4.74-4.82,4.74h-6.67Z"/>
        <path class="cls-4" d="M150.47,61.51c-10.27,0-16.64-6.21-16.64-16.21v-13.89c0-2.62,2.16-4.74,4.82-4.74h6.63c2.66,0,4.82,2.12,4.82,4.74v12.84c0,2.98.41,2.98,1.95,2.98,4.22,0,6.12-3.7,6.21-4.5v-11.32c0-2.62,2.15-4.74,4.81-4.74h6.72c2.66,0,4.82,2.12,4.82,4.74v24.88c0,2.62-2.16,4.74-4.82,4.74h-6.72c-1.43,0-2.71-.61-3.6-1.59-2.59,1.37-5.61,2.07-8.99,2.07"/>
        <path class="cls-8" d="M24.68,31.5v3.26l-1.57,3.66h1.25c2.42-5.25,6.32-7.45,10.53-7.45,3.76,0,7.17,1.85,8.65,7.15h1.43c1.88-4.46,5.78-7.15,10.35-7.15,6.81,0,11.47,3.88,11.47,12.04v13.28h-6.63v-12.22c0-4.98-1.7-7.94-6.67-7.94-4.44,0-7.66,3.44-7.66,7.98v12.17h-6.63v-12.26c0-4.98-1.79-7.98-6.76-7.98s-7.75,4.06-7.75,7.06v13.19h-6.72v-24.79h6.72Z"/>
        <path class="cls-8" d="M90.67,41.68c-.13-4.06-2.6-6.88-7.75-6.88-5.6,0-7.75,3.26-8.42,6.88h16.17ZM74.23,44.24v1.06c.09,4.9,3.94,7.72,9.14,7.72,3.63,0,8.2-1.54,9.45-5.51h5.91c-1.57,6.48-8.51,9.44-15.5,9.44-8.56,0-15.63-4.5-15.63-12.92s7.35-13.06,15.37-13.06c8.69,0,14.47,5.03,14.25,13.28h-22.98Z"/>
        <path class="cls-8" d="M107.56,19.85c2.55,0,4.26,1.54,4.26,3.88s-1.7,3.93-4.26,3.93-4.26-1.59-4.26-3.93,1.7-3.88,4.26-3.88M96.89,51.34h7.66v-15.13h-7.66v-4.76h9.68c3.58,0,4.7,1.99,4.7,4.63v15.26h7.57v4.94h-21.95v-4.94Z"/>
        <path class="cls-8" d="M129.15,31.45h8.74v4.76h-6.9c-4.48,0-5.78,2.78-5.78,7.72,0,4.46,1.3,7.41,6.27,7.41h6.36v4.94h-6.67c-7.44,0-11.56-4.06-11.56-10.67,0-4.94,2.11-8.87,7.26-9.75v-1.46l-4.79,1.81h-6.05l-.04-4.76h7.03v-5.87l6.18-1.46-.05,7.32Z"/>
        <path class="cls-8" d="M138.65,45.3v-13.89h6.63v12.84c0,2.96.49,7.72,6.76,7.72,7.03,0,11.02-6.09,11.02-9.17v-11.38h6.72v24.88h-6.72v-4.01l.94-2.69h-1.48c-2.46,4.85-6.59,7.19-12.05,7.19s-11.83-2.43-11.83-11.47"/>
        <path class="cls-5" d="M24.68,31.5v3.26l-1.57,3.66h1.25c2.42-5.25,6.32-7.45,10.53-7.45,3.76,0,7.17,1.85,8.65,7.15h1.43c1.88-4.46,5.78-7.15,10.35-7.15,6.81,0,11.47,3.88,11.47,12.04v13.28h-6.63v-12.22c0-4.98-1.7-7.94-6.67-7.94-4.44,0-7.66,3.44-7.66,7.98v12.17h-6.63v-12.26c0-4.98-1.79-7.98-6.76-7.98s-7.75,4.06-7.75,7.06v13.19h-6.72v-24.79h6.72Z"/>
        <path class="cls-5" d="M90.67,41.68c-.13-4.06-2.6-6.88-7.75-6.88-5.6,0-7.75,3.26-8.42,6.88h16.17ZM74.23,44.24v1.06c.09,4.9,3.94,7.72,9.14,7.72,3.63,0,8.2-1.54,9.45-5.51h5.91c-1.57,6.48-8.51,9.44-15.5,9.44-8.56,0-15.63-4.5-15.63-12.92s7.35-13.06,15.37-13.06c8.69,0,14.47,5.03,14.25,13.28h-22.98Z"/>
        <path class="cls-5" d="M107.56,19.85c2.55,0,4.26,1.54,4.26,3.88s-1.7,3.93-4.26,3.93-4.26-1.59-4.26-3.93,1.7-3.88,4.26-3.88M96.89,51.34h7.66v-15.13h-7.66v-4.76h9.68c3.58,0,4.7,1.99,4.7,4.63v15.26h7.57v4.94h-21.95v-4.94Z"/>
        <path class="cls-5" d="M129.15,31.45h8.74v4.76h-6.9c-4.48,0-5.78,2.78-5.78,7.72,0,4.46,1.3,7.41,6.27,7.41h6.36v4.94h-6.67c-7.44,0-11.56-4.06-11.56-10.67,0-4.94,2.11-8.87,7.26-9.75v-1.46l-4.79,1.81h-6.05l-.04-4.76h7.03v-5.87l6.18-1.46-.05,7.32Z"/>
        <path class="cls-5" d="M138.65,45.3v-13.89h6.63v12.84c0,2.96.49,7.72,6.76,7.72,7.03,0,11.02-6.09,11.02-9.17v-11.38h6.72v24.88h-6.72v-4.01l.94-2.69h-1.48c-2.46,4.85-6.59,7.19-12.05,7.19s-11.83-2.43-11.83-11.47"/>
      </g>
      <path class="cls-5" d="M13.35,95.69h161.03V15.32H13.35v80.37ZM174.81,96.1H12.94V14.9h161.87v81.2Z"/>
      <rect class="cls-7" x="173.43" y="14.02" width="2.38" height="2.38"/>
      <path class="cls-1" d="M173.64,16.19h1.96v-1.96h-1.96v1.96ZM176.02,16.61h-2.8v-2.8h2.8v2.8Z"/>
      <rect class="cls-7" x="173.43" y="94.7" width="2.38" height="2.38"/>
      <path class="cls-1" d="M173.64,96.88h1.96v-1.96h-1.96v1.96ZM176.02,97.29h-2.8v-2.8h2.8v2.8Z"/>
      <rect class="cls-7" x="11.95" y="14.02" width="2.38" height="2.38"/>
      <path class="cls-1" d="M12.16,16.19h1.96v-1.96h-1.96v1.96ZM14.54,16.61h-2.8v-2.8h2.8v2.8Z"/>
      <rect class="cls-7" x="11.95" y="55.58" width="2.38" height="2.38"/>
      <path class="cls-1" d="M12.16,57.75h1.96v-1.96h-1.96v1.96ZM14.54,58.17h-2.8v-2.8h2.8v2.8Z"/>
      <rect class="cls-7" x="173.43" y="55.58" width="2.38" height="2.38"/>
      <path class="cls-1" d="M173.64,57.75h1.96v-1.96h-1.96v1.96ZM176.02,58.17h-2.8v-2.8h2.8v2.8Z"/>
      <rect class="cls-7" x="89.76" y="13.65" width="2.38" height="2.38"/>
      <path class="cls-1" d="M89.97,15.82h1.96v-1.96h-1.96v1.96ZM92.35,16.24h-2.8v-2.8h2.8v2.8Z"/>
      <rect class="cls-7" x="89.76" y="94.7" width="2.38" height="2.38"/>
      <path class="cls-1" d="M89.97,96.88h1.96v-1.96h-1.96v1.96ZM92.35,97.29h-2.8v-2.8h2.8v2.8Z"/>
      <rect class="cls-7" x="11.95" y="94.7" width="2.38" height="2.38"/>
      <path class="cls-1" d="M12.16,96.88h1.96v-1.96h-1.96v1.96ZM14.54,97.29h-2.8v-2.8h2.8v2.8Z"/>
      <polygon points="180.24 105.77 181.89 115.7 183.83 111.99 188.37 112.25 180.24 105.77"/>
    </g>
  </g>
</svg>