<?xml version="1.0" encoding="UTF-8"?>
<svg id="_圖層_2" data-name="圖層 2" xmlns="http://www.w3.org/2000/svg" viewBox="0 0 25.18 25.16">
  <g id="_圖層_1-2" data-name="圖層 1">
    <g>
      <polygon points="25.18 6.33 25.16 3.31 25.16 6.33 25.18 6.33"/>
      <polygon points="25.16 0 25.14 0 25.16 3.31 25.16 0"/>
      <polygon points="25.14 0 0 0 0 25.05 .04 .13 25.14 0"/>
      <path d="M25.16,21.06l-11.51-11.51c-1.18-1.18-7.51-5.5-9.12-6.15l.83-1.96c1.57.7,8.17,5.02,9.91,4.85l9.89.04v-3.01l-.02-3.31L.04.13l-.04,24.92h6.46l-.13-9.91c.13-1.7-4.1-8.29-4.76-9.91l1.92-.78c.65,1.61,4.93,7.9,6.15,9.12l11.59,11.59h3.93v-4.1Z"/>
    </g>
  </g>
</svg>