<?xml version="1.0" encoding="UTF-8"?>
<svg id="_喇뒨쏛_2" data-name="喇뒨쏛 2" xmlns="http://www.w3.org/2000/svg" viewBox="0 0 60.01 55.3">
  <defs>
    <style>
      .cls-1 {
        fill: #dbdcdc;
      }
    </style>
  </defs>
  <g id="_喇뒨쏛_1-2" data-name="喇뒨쏛 1">
    <g>
      <polygon points="18.22 41.1 18.33 41.08 18.12 40.87 21.51 37.52 0 37.52 0 17.84 21.41 17.84 18.03 14.54 32.57 0 60.01 27.54 32.54 55.3 18.22 41.1"/>
      <path class="cls-1" d="M33.86,24.84H7v5.68h26.85c1.66,0,9.2-1.42,10.8-2.1l.8,1.98c-1.6.62-9.32,2.22-10.43,3.58l-6.98,6.92,4.38,4.38h-.04s.11.12.11.12l17.65-17.84-17.59-17.65-4.57,4.57,7.1,6.91c1.11,1.29,8.77,2.96,10.37,3.64l-.8,1.91c-1.6-.68-9.07-2.1-10.8-2.1Z"/>
    </g>
  </g>
</svg>