<?xml version="1.0" encoding="UTF-8"?>
<svg id="_圖層_2" data-name="圖層 2" xmlns="http://www.w3.org/2000/svg" viewBox="0 0 884 685.8">
  <defs>
    <style>
      .cls-1 {
        fill: #140305;
      }

      .cls-2 {
        fill: #3d82ff;
      }

      .cls-3 {
        fill: #dbdcdc;
      }
    </style>
  </defs>
  <g id="_圖層_1-2" data-name="圖層 1">
    <g>
      <g>
        <g>
          <path class="cls-3" d="M222.17,223.49c-14.76,0-28.45-4.32-38.54-12.17-11.55-8.99-17.91-22.22-17.91-37.26s6.84-29.33,19.27-38.36c10.17-7.39,23.61-11.46,37.83-11.46,25.02,0,52.9,13.39,54.99,42.78l.11,1.56h4.57l-1.91,12.99c-1.93,13.1-9.67,24.48-21.79,32.04-10.23,6.38-23.23,9.89-36.62,9.89ZM221.91,158.23c-3.92,0-15.83,0-15.83,15.83,0,7.25,1.8,15.57,15.83,15.57,9.31,0,16.89-4.47,17.91-10.47h-2.49l-.24-11.1c-.15-7.25-7.95-9.83-15.19-9.83Z"/>
          <path class="cls-3" d="M303.68,223.62c-33.44,0-58.66-21.31-58.66-49.56,0-15.2,7.17-28.66,20.18-37.9,10.67-7.58,24.94-11.92,39.13-11.92s27.57,4.12,37.86,11.61c12.49,9.1,19.37,22.66,19.37,38.21s-6.6,28.08-18.58,37.2c-10.47,7.97-24.43,12.36-39.31,12.36ZM303.81,158.1c-6.73,0-16.74,4.18-16.74,15.7,0,9.86,6.72,16.74,16.35,16.74s15.96-6.73,15.96-16.74c0-3.68-1.12-15.7-15.57-15.7Z"/>
          <path class="cls-3" d="M401.67,221.67v-48.26c0-10.9-2.8-11.41-8.16-11.41-13.7,0-19.86,12.48-19.86,15.7v43.97h-42.18v-96h42.18v4.71c7.37-4.11,16-6.14,25.97-6.14,27.94,0,43.97,16.45,43.97,45.14v52.29h-41.92Z"/>
          <path class="cls-3" d="M463.58,221.54c-27.26,0-44.88-16.8-44.88-42.8,0-6,.87-11.49,2.54-16.35h-12.84l-.34-36.72h20.52v-14.9l40.71-9.73-.15,24.63h25.28v36.72h-31.36c-.98,0-3.31.08-3.81.85-.49.73-1.62,3.23-1.62,10.56,0,10.5,1.87,10.5,6.86,10.5h29.8v37.24h-30.71Z"/>
          <path class="cls-3" d="M502.19,222.84c-24.47,0-42.93-15.38-42.93-35.78,0-10.33,4.62-18.88,12.61-24.67h-4.45l-.34-36.72h56.43c31.25,0,47.09,15.32,47.09,45.53v13.23h12.87v37.24h-45.56v-2.63c-2.05-1.3-3.88-3.05-5.31-5.22-8.6,5.83-19.02,9.02-30.42,9.02ZM502.14,187.42c1.27.7,3.78,1.57,7.46,1.57,2.45,0,4.6-.42,6.47-1.09-2.75-.87-5.54-1.46-8.03-1.46-2.36,0-4.57.47-5.9.98Z"/>
          <path class="cls-3" d="M601.38,223.49c-14.76,0-28.45-4.32-38.54-12.17-11.55-8.99-17.91-22.22-17.91-37.26s6.84-29.33,19.27-38.36c10.17-7.39,23.61-11.46,37.83-11.46,25.02,0,52.9,13.39,54.99,42.78l.11,1.56h4.57l-1.91,12.99c-1.93,13.1-9.67,24.48-21.79,32.04-10.23,6.38-23.23,9.89-36.62,9.89ZM601.12,158.23c-3.92,0-15.83,0-15.83,15.83,0,7.25,1.8,15.57,15.83,15.57,9.31,0,16.89-4.47,17.91-10.47h-2.49l-.24-11.1c-.15-7.25-7.95-9.83-15.18-9.83Z"/>
          <path class="cls-3" d="M677.3,221.54c-27.26,0-44.88-16.8-44.88-42.8,0-6,.87-11.49,2.54-16.35h-12.84l-.34-36.72h20.52v-14.9l40.71-9.73-.15,24.63h25.28v36.72h-31.36c-.98,0-3.31.08-3.81.85-.49.73-1.62,3.23-1.62,10.56,0,10.5,1.87,10.5,6.86,10.5h29.8v37.24h-30.71Z"/>
        </g>
        <g>
          <path class="cls-1" d="M269.37,179.91c-3.12,21.19-25.35,32.24-47.19,32.24-24.05,0-45.11-13.39-45.11-38.09,0-26.52,23.66-38.48,45.76-38.48,20.67,0,42.12,10.27,43.68,32.24h-18.07c-.26-12.22-10.66-20.93-26.52-20.93-18.98,0-27.17,12.61-27.17,27.17,0,18.72,11.7,26.91,27.17,26.91s27.95-9.23,29.25-21.06h18.2Z"/>
          <path class="cls-1" d="M350.22,174.06c0,24.18-22.1,38.22-46.54,38.22s-47.32-14.56-47.32-38.22c0-25.09,25.09-38.48,47.97-38.48s45.89,12.35,45.89,38.48ZM303.42,201.88c16.12,0,27.3-12.09,27.3-28.08,0-14.82-9.75-27.04-26.91-27.04-18.72,0-28.08,14.43-28.08,27.04,0,15.86,11.44,28.08,27.69,28.08Z"/>
          <path class="cls-1" d="M432.25,169.38v40.95h-19.24v-36.92c0-8.71-1.43-22.75-19.5-22.75-20.41,0-31.2,17.94-31.2,27.04v32.63h-19.5v-73.32h19.5v11.83l-2.86,7.93h4.42c8.32-15.34,20.15-21.19,35.75-21.19,17.03,0,32.63,7.15,32.63,33.8Z"/>
          <path class="cls-1" d="M457.73,137.01h25.35v14.04h-20.02c-13,0-16.77,8.19-16.77,22.75,0,13.13,3.77,21.84,18.2,21.84h18.46v14.56h-19.37c-21.58,0-33.54-11.96-33.54-31.46,0-14.56,6.11-26.13,21.06-28.73v-4.29l-13.91,5.33h-17.55l-.13-14.04h20.41v-17.29l17.94-4.29-.13,21.58Z"/>
          <path class="cls-1" d="M501.02,165.48c17.03,0,29.9,7.67,38.74,13.52.13-2.34,0-7.54,0-9.62,0-13-6.37-18.33-23.14-18.33h-37.96l-.13-14.04h44.98c24.7,0,35.75,10.27,35.75,34.19v24.57h12.87v14.56h-22.88v-.13l-2.47.13c-4.16,0-5.98-4.55-5.98-7.54,0-4.16,2.47-11.83,3.77-13.78l-3.9-2.08c-8.71,19.5-26.26,24.57-38.48,24.57-15.99,0-31.59-8.84-31.59-24.44s14.56-21.58,30.42-21.58ZM509.6,200.32c18.59,0,26.52-15.47,26.52-15.47,0,0-14.95-9.75-28.08-9.75-5.59,0-17.94,1.82-17.94,12.22,0,8.58,9.62,13,19.5,13Z"/>
          <path class="cls-1" d="M648.57,179.91c-3.12,21.19-25.35,32.24-47.19,32.24-24.05,0-45.11-13.39-45.11-38.09,0-26.52,23.66-38.48,45.76-38.48,20.67,0,42.12,10.27,43.68,32.24h-18.07c-.26-12.22-10.66-20.93-26.52-20.93-18.98,0-27.17,12.61-27.17,27.17,0,18.72,11.7,26.91,27.17,26.91s27.95-9.23,29.25-21.06h18.2Z"/>
          <path class="cls-1" d="M671.45,137.01h25.35v14.04h-20.02c-13,0-16.77,8.19-16.77,22.75,0,13.13,3.77,21.84,18.2,21.84h18.46v14.56h-19.37c-21.58,0-33.54-11.96-33.54-31.46,0-14.56,6.11-26.13,21.06-28.73v-4.29l-13.91,5.33h-17.55l-.13-14.04h20.41v-17.29l17.94-4.29-.13,21.58Z"/>
        </g>
      </g>
      <g>
        <g>
          <path class="cls-3" d="M270.79,121.8c-24.47,0-42.93-15.38-42.93-35.78,0-10.33,4.62-18.88,12.61-24.67h-4.45l-.34-36.72h56.43c31.25,0,47.09,15.32,47.09,45.53v13.23h12.87v37.24h-45.56v-2.63c-2.05-1.3-3.88-3.05-5.31-5.22-8.6,5.83-19.02,9.02-30.42,9.02ZM270.75,86.38c1.27.7,3.78,1.57,7.46,1.57,2.45,0,4.6-.42,6.47-1.09-2.75-.87-5.54-1.46-8.03-1.46-2.36,0-4.57.47-5.9.98Z"/>
          <path class="cls-3" d="M386.36,121.54c-9.34,0-18.34-2.32-26.1-5.93v4.89h-42.18V2.79h42.18v26.34c7.62-3.9,16.2-5.93,25.45-5.93,30.73,0,51.38,19.13,51.38,47.61,0,14.89-5.58,28.21-15.71,37.51-9.29,8.53-21.73,13.22-35.02,13.22ZM379.34,58.1c-12.04,0-18.95,5.11-18.95,14.01s7.9,15.31,19.21,15.31c10.45,0,15.31-4.95,15.31-15.57,0-11.45-5.96-13.75-15.57-13.75Z"/>
          <path class="cls-3" d="M461.89,122.58c-33.44,0-58.66-21.31-58.66-49.56,0-15.2,7.17-28.66,20.18-37.9,10.67-7.58,24.94-11.92,39.13-11.92s27.57,4.12,37.86,11.62c12.49,9.1,19.37,22.66,19.37,38.21s-6.6,28.08-18.58,37.2c-10.47,7.97-24.43,12.36-39.3,12.36ZM462.02,57.06c-6.73,0-16.74,4.18-16.74,15.7,0,9.86,6.72,16.74,16.35,16.74s15.96-6.73,15.96-16.74c0-3.68-1.12-15.7-15.57-15.7Z"/>
          <path class="cls-3" d="M534.56,121.93c-28.16,0-45.66-17.3-45.66-45.14V24.5h41.92v49.17c0,9.84,1.97,11.41,8.29,11.41,14,0,20.57-12.49,20.64-15.71V24.5h42.18v96h-42.18v-4.58c-7.23,3.97-15.68,6.01-25.19,6.01Z"/>
          <path class="cls-3" d="M625.3,120.5c-27.26,0-44.88-16.8-44.88-42.8,0-6,.87-11.49,2.54-16.35h-12.84l-.34-36.72h20.52v-14.9l40.7-9.74-.15,24.63h25.28v36.72h-31.36c-.98,0-3.31.08-3.81.85-.49.73-1.62,3.23-1.62,10.57,0,10.5,1.87,10.5,6.86,10.5h29.8v37.24h-30.71Z"/>
        </g>
        <g>
          <path class="cls-1" d="M269.62,64.44c17.03,0,29.9,7.67,38.74,13.52.13-2.34,0-7.54,0-9.62,0-13-6.37-18.33-23.14-18.33h-37.96l-.13-14.04h44.98c24.7,0,35.75,10.27,35.75,34.19v24.57h12.87v14.56h-22.88v-.13l-2.47.13c-4.16,0-5.98-4.55-5.98-7.54,0-4.16,2.47-11.83,3.77-13.78l-3.9-2.08c-8.71,19.5-26.26,24.57-38.48,24.57-15.99,0-31.59-8.84-31.59-24.44s14.56-21.58,30.42-21.58ZM278.2,99.29c18.59,0,26.52-15.47,26.52-15.47,0,0-14.95-9.75-28.08-9.75-5.59,0-17.94,1.82-17.94,12.22,0,8.58,9.62,13,19.5,13Z"/>
          <path class="cls-1" d="M425.76,70.81c0,25.22-18.98,39.39-39.39,39.39-17.81,0-34.58-10.79-38.87-19.5h-4.42l5.85,9.75v8.71h-19.5V14.13h19.5v31.07l-5.98,11.96h4.03c8.45-14.3,21.97-22.62,38.74-22.62,21.06,0,40.04,11.18,40.04,36.27ZM406.25,71.85c0-14.43-7.41-25.09-26.91-25.09-20.54,0-30.29,11.96-30.29,25.35,0,15.08,12.61,26.65,30.55,26.65,16.77,0,26.65-10.14,26.65-26.91Z"/>
          <path class="cls-1" d="M508.43,73.02c0,24.18-22.1,38.22-46.54,38.22s-47.32-14.56-47.32-38.22c0-25.09,25.09-38.48,47.97-38.48s45.89,12.35,45.89,38.48ZM461.63,100.84c16.12,0,27.3-12.09,27.3-28.08,0-14.82-9.75-27.04-26.91-27.04-18.72,0-28.08,14.43-28.08,27.04,0,15.86,11.44,28.08,27.69,28.08Z"/>
          <path class="cls-1" d="M500.24,76.79v-40.95h19.24v37.83c0,8.71,1.43,22.75,19.63,22.75,20.41,0,31.98-17.94,31.98-27.04v-33.54h19.5v73.32h-19.5v-11.83l2.73-7.93h-4.29c-7.15,14.3-19.11,21.19-34.97,21.19s-34.32-7.15-34.32-33.8Z"/>
          <path class="cls-1" d="M619.45,35.97h25.35v14.04h-20.02c-13,0-16.77,8.19-16.77,22.75,0,13.13,3.77,21.84,18.2,21.84h18.46v14.56h-19.37c-21.58,0-33.54-11.96-33.54-31.46,0-14.56,6.11-26.13,21.06-28.73v-4.29l-13.91,5.33h-17.55l-.13-14.04h20.41v-17.29l17.94-4.29-.13,21.58Z"/>
        </g>
      </g>
      <g>
        <g>
          <path class="cls-3" d="M198.13,356.56v-128.37h42.18v4.51c8.14-3.59,17.33-5.68,26.36-5.68,29.64,0,50.34,20.17,50.34,49.04,0,15.2-5.55,28.02-16.04,37.07-9.14,7.88-21.51,12.23-34.82,12.23-9.25,0-18.07-2.19-25.84-6.21v37.41h-42.18ZM259.26,261.01c-5.66,0-18.82,1.28-18.82,13.1,0,9.22,7.59,15.18,19.34,15.18,10.69,0,15.05-4.17,15.05-14.4,0-11.56-5.96-13.88-15.57-13.88Z"/>
          <path class="cls-3" d="M341.94,326.14c-33.44,0-58.66-21.31-58.66-49.56,0-15.2,7.17-28.66,20.18-37.9,10.67-7.58,24.94-11.92,39.13-11.92s27.57,4.12,37.86,11.61c12.49,9.1,19.37,22.66,19.37,38.21s-6.6,28.08-18.58,37.2c-10.47,7.97-24.43,12.36-39.31,12.36ZM342.07,260.62c-6.73,0-16.74,4.18-16.74,15.7,0,9.86,6.72,16.74,16.35,16.74s15.96-6.73,15.96-16.74c0-3.68-1.12-15.7-15.57-15.7Z"/>
          <path class="cls-3" d="M420.46,325.88c-18.27,0-32.45-3.91-42.16-11.63-8.17-6.5-12.86-15.63-12.86-25.06v-11.34h10.71c-4.45-5.93-5.38-12.46-5.38-16.87,0-11.25,5.77-20.71,16.24-26.66,8.83-5.01,21-7.56,36.18-7.56,32.65,0,52.94,14.56,52.94,37.99v11.34h-4.96c3.98,5.57,4.83,11.6,4.83,15.7,0,10.25-5.41,34.09-55.54,34.09Z"/>
          <path class="cls-3" d="M494.69,324.06c-27.26,0-44.88-16.8-44.88-42.8,0-6,.87-11.49,2.54-16.35h-12.84l-.34-36.72h20.52v-14.9l40.71-9.73-.15,24.63h25.28v36.72h-31.36c-.98,0-3.31.08-3.81.85-.49.73-1.62,3.23-1.62,10.56,0,10.5,1.87,10.5,6.86,10.5h29.8v37.24h-30.71Z"/>
          <path class="cls-3" d="M547.73,326.01c-33.39,0-56.71-20.33-56.71-49.43s23-49.82,55.93-49.82c16.38,0,30.11,5.2,39.69,15.04,8.45,8.68,12.93,20.3,13.01,33.71h7.42l-3.33,13.97c-5.28,22.19-27.27,36.53-56.01,36.53ZM536.71,288.57c2.27,1.86,5.84,3.19,11.41,3.19s9.5-1.39,12.25-3.19h-23.66Z"/>
          <path class="cls-3" d="M573.82,324.19v-96h42.18v4.78c7.34-4.13,15.89-6.21,25.58-6.21,13.96,0,25.42,4.26,33.15,12.33,7.99,8.34,11.71,20.15,11.07,35.12l-.46,10.78-40.41.29v-11.42c0-6.31-1.11-8-1.33-8.28-.24-.29-1.72-1.05-5.66-1.05-16.23,0-21.94,12.93-21.94,15.7v43.97h-42.18Z"/>
        </g>
        <g>
          <path class="cls-2" d="M226.89,290.23h-4.03l6.11,13.13v41.86h-19.5v-105.69h19.5v8.45l-5.85,8.71h4.42c6.24-10.01,22.62-18.33,39.13-18.33,20.41,0,39,12.61,39,37.7s-19.11,37.96-39.52,37.96c-18.72,0-32.76-10.79-39.26-23.79ZM229.1,274.11c0,13.91,10.66,26.52,30.68,26.52,18.2,0,26.39-10.4,26.39-25.74s-8.71-25.22-26.91-25.22-30.16,9.75-30.16,24.44Z"/>
          <path class="cls-2" d="M388.48,276.58c0,24.18-22.1,38.22-46.54,38.22s-47.32-14.56-47.32-38.22c0-25.09,25.09-38.48,47.97-38.48s45.89,12.35,45.89,38.48ZM341.68,304.4c16.12,0,27.3-12.09,27.3-28.08,0-14.82-9.75-27.04-26.91-27.04-18.72,0-28.08,14.43-28.08,27.04,0,15.86,11.44,28.08,27.69,28.08Z"/>
          <path class="cls-2" d="M464.66,291.79c0,14.69-15.99,22.75-44.2,22.75-35.36,0-43.68-15.99-43.68-25.35h18.72c.78,9.36,13,13.39,25.61,13.39,19.63,0,26.52-3.25,26.52-10.79,0-18.98-65.52,1.04-65.52-30.81,0-14.3,14.3-22.88,41.08-22.88,22.49,0,41.6,7.54,41.6,26.65h-17.68c-1.04-10.27-9.88-14.56-23.92-14.56s-22.49,2.86-22.49,11.57c0,18.72,63.96-.13,63.96,30.03Z"/>
          <path class="cls-2" d="M488.84,239.53h25.35v14.04h-20.02c-13,0-16.77,8.19-16.77,22.75,0,13.13,3.77,21.84,18.2,21.84h18.46v14.56h-19.37c-21.58,0-33.54-11.96-33.54-31.46,0-14.56,6.11-26.13,21.06-28.73v-4.29l-13.91,5.33h-17.55l-.13-14.04h20.41v-17.29l17.94-4.29-.13,21.58Z"/>
          <path class="cls-2" d="M521.59,277.23v3.12c.26,14.43,11.44,22.75,26.52,22.75,10.53,0,23.79-4.55,27.43-16.25h17.16c-4.55,19.11-24.7,27.82-44.98,27.82-24.83,0-45.37-13.26-45.37-38.09s21.32-38.48,44.59-38.48c25.22,0,41.99,14.82,41.34,39.13h-66.69ZM569.31,269.69c-.39-11.96-7.54-20.28-22.49-20.28-16.25,0-22.49,9.62-24.44,20.28h46.93Z"/>
          <path class="cls-2" d="M674.48,273.72l-18.2.13c0-13.52-4.16-20.67-18.33-20.67-22.49,0-33.28,17.94-33.28,27.04v32.63h-19.5v-73.32h19.5v11.83l-2.86,7.93h4.42c8.32-15.34,20.15-21.19,35.36-21.19,18.07,0,34.06,8.32,32.89,35.62Z"/>
        </g>
      </g>
      <g>
        <g>
          <path class="cls-3" d="M55.52,436.11c-27.26,0-44.88-16.8-44.88-42.8,0-6,.87-11.49,2.54-16.35H.34l-.34-36.72h20.52v-14.9l40.71-9.73-.15,24.63h25.28v36.72h-31.36c-.98,0-3.31.08-3.81.85-.49.73-1.62,3.23-1.62,10.56,0,10.5,1.87,10.5,6.86,10.5h29.8v37.24h-30.71Z"/>
          <path class="cls-3" d="M74.6,468.61v-37.11h12.67c-4.03-2.68-7.12-6.57-9.33-11.7l-37.59-79.56h45.74l20.47,45.1,19.2-45.1h44.19l-36.01,85.67,17.11,42.7h-76.46Z"/>
          <path class="cls-3" d="M130.76,468.61v-128.37h42.18v4.51c8.14-3.59,17.33-5.68,26.36-5.68,29.64,0,50.34,20.17,50.34,49.04,0,15.2-5.55,28.02-16.04,37.07-9.14,7.88-21.51,12.23-34.82,12.23-9.25,0-18.07-2.19-25.84-6.21v37.41h-42.18ZM191.89,373.06c-5.66,0-18.82,1.28-18.82,13.1,0,9.22,7.59,15.18,19.34,15.18,10.69,0,15.05-4.17,15.05-14.4,0-11.56-5.96-13.88-15.57-13.88Z"/>
          <path class="cls-3" d="M274.56,438.19c-33.44,0-58.66-21.31-58.66-49.56,0-15.2,7.17-28.66,20.18-37.9,10.67-7.58,24.94-11.92,39.13-11.92s27.57,4.12,37.86,11.61c12.49,9.1,19.37,22.66,19.37,38.21s-6.6,28.08-18.58,37.2c-10.47,7.97-24.43,12.36-39.31,12.36ZM274.69,372.67c-6.73,0-16.74,4.18-16.74,15.7,0,9.86,6.72,16.74,16.35,16.74s15.96-6.73,15.96-16.74c0-3.68-1.12-15.7-15.57-15.7Z"/>
          <path class="cls-3" d="M335.89,468.61c-12.35,0-21.74-2.21-28.67-6.75-6.01-3.94-13.18-11.68-13.18-26.17,0-8.5,2.87-26.62,26.44-31.7-10.73-5.36-17.11-15.57-17.21-28.92,0-21.84,15.42-34.83,41.24-34.83h4.65c0-.28,0-.57,0-.85.05-11.64,9.02-20.08,21.35-20.08h54.35l-.34,36.85h-15.58c5.24,6.83,6.27,14.73,6.32,19.56.2,10.06-2.67,18.19-8.53,24.18-.93.95-1.91,1.82-2.93,2.61,16.91,6.26,21.22,19.52,21.33,31.13.15,9.92-2.78,18.02-8.71,24.03-7.35,7.46-18.84,11.08-35.13,11.08l-45.41-.13ZM370.33,377.04c1.69,0,2.58-.32,2.85-.48.04-.12.13-.41.15-.96-.46-.24-1.54-.6-3.38-.6h-.5s-20.84-.26-20.84-.26c-2.09,0-2.99.5-3.11.63,0,.02-.06.2-.06.52,0,.08.01.14.02.2.49.2,1.56.49,3.35.54,0,0,21.52.39,21.52.39Z"/>
          <path class="cls-3" d="M391.14,436.24v-96h42.18v4.78c7.34-4.13,15.89-6.21,25.58-6.21,13.96,0,25.42,4.26,33.15,12.33,7.99,8.34,11.71,20.15,11.07,35.12l-.46,10.78-40.41.29v-11.42c0-6.31-1.11-8-1.33-8.28-.24-.29-1.72-1.05-5.66-1.05-16.23,0-21.94,12.93-21.94,15.7v43.97h-42.18Z"/>
          <path class="cls-3" d="M506.74,437.41c-24.47,0-42.93-15.38-42.93-35.78,0-10.33,4.62-18.88,12.61-24.67h-4.45l-.34-36.72h56.43c31.25,0,47.09,15.32,47.09,45.53v13.23h12.87v37.24h-45.56v-2.63c-2.05-1.3-3.88-3.05-5.31-5.22-8.6,5.83-19.02,9.02-30.42,9.02ZM506.7,401.99c1.27.7,3.78,1.57,7.46,1.57,2.45,0,4.6-.42,6.47-1.09-2.75-.87-5.54-1.46-8.03-1.46-2.36,0-4.57.47-5.9.98Z"/>
          <path class="cls-3" d="M553.77,468.61v-128.37h42.18v4.51c8.14-3.58,17.33-5.68,26.36-5.68,29.64,0,50.34,20.17,50.34,49.04,0,15.2-5.55,28.02-16.04,37.07-9.14,7.88-21.51,12.23-34.82,12.23-9.25,0-18.07-2.19-25.84-6.21v37.41h-42.18ZM614.9,373.06c-5.66,0-18.82,1.28-18.82,13.1,0,9.22,7.59,15.18,19.34,15.18,10.69,0,15.05-4.17,15.05-14.4,0-11.56-5.96-13.88-15.57-13.88Z"/>
          <path class="cls-3" d="M715.1,436.24v-48.26c0-9.84-1.97-11.41-8.29-11.41-14.25,0-21.06,12.49-21.16,15.72v43.96s-42.18,0-42.18,0v-117.71h42.18v26.2c7.14-3.99,15.46-5.92,25.19-5.92,28.92,0,46.18,16.88,46.18,45.14v52.29h-41.92Z"/>
          <path class="cls-3" d="M721.99,436.11v-37.24h22.23v-21.91h-22.23v-36.72h21.44c-1.83-3.3-2.85-7.17-2.85-11.41,0-13.2,9.96-22.78,23.69-22.78s23.69,9.58,23.69,22.78c0,7.51-3.19,13.86-8.45,17.95,4.43,4.33,6.89,10.64,6.89,18.45v33.64h21.97v37.24h-86.38Z"/>
          <path class="cls-3" d="M823.68,438.06c-14.76,0-28.45-4.32-38.54-12.17-11.55-8.99-17.91-22.22-17.91-37.26s6.84-29.33,19.27-38.36c10.17-7.39,23.61-11.46,37.83-11.46,25.02,0,52.9,13.39,54.99,42.78l.11,1.56h4.57l-1.91,12.99c-1.93,13.1-9.67,24.48-21.79,32.04-10.23,6.38-23.23,9.89-36.62,9.89ZM823.42,372.8c-3.92,0-15.83,0-15.83,15.83,0,7.25,1.8,15.57,15.83,15.57,9.31,0,16.89-4.47,17.91-10.47h-2.49l-.24-11.1c-.15-7.25-7.95-9.83-15.18-9.83Z"/>
        </g>
        <g>
          <path class="cls-1" d="M49.67,351.58h25.35v14.04h-20.02c-13,0-16.77,8.19-16.77,22.75,0,13.13,3.77,21.84,18.2,21.84h18.46v14.56h-19.37c-21.58,0-33.54-11.96-33.54-31.46,0-14.56,6.11-26.13,21.06-28.73v-4.29l-13.91,5.33H11.57l-.13-14.04h20.41v-17.29l17.94-4.29-.13,21.58Z"/>
          <path class="cls-1" d="M152.89,351.58l-31.2,74.23,12.61,31.46h-48.36v-14.43h23.66l-6.89-18.2c-7.15-.39-11.57-2.73-14.43-9.49l-30.03-63.57h20.54l25.61,56.42-2.73,7.41h4.42l27.17-63.83h19.63Z"/>
          <path class="cls-1" d="M159.51,402.28h-4.03l6.11,13.13v41.86h-19.5v-105.69h19.5v8.45l-5.85,8.71h4.42c6.24-10.01,22.62-18.33,39.13-18.33,20.41,0,39,12.61,39,37.7s-19.11,37.96-39.52,37.96c-18.72,0-32.76-10.79-39.26-23.79ZM161.73,386.16c0,13.91,10.66,26.52,30.68,26.52,18.2,0,26.39-10.4,26.39-25.74s-8.71-25.22-26.91-25.22-30.16,9.75-30.16,24.44Z"/>
          <path class="cls-1" d="M321.11,388.63c0,24.18-22.1,38.22-46.54,38.22s-47.32-14.56-47.32-38.22c0-25.09,25.09-38.48,47.97-38.48s45.89,12.35,45.89,38.48ZM274.3,416.45c16.12,0,27.3-12.09,27.3-28.08,0-14.82-9.75-27.04-26.91-27.04-18.72,0-28.08,14.43-28.08,27.04,0,15.86,11.44,28.08,27.69,28.08Z"/>
          <path class="cls-1" d="M413.27,344.82h-36.27c-1.69.78-2.34,6.11-2.34,9.49,20.54,0,29.12,8.19,29.25,21.58.39,18.33-12.35,23.4-31.07,23.4h-21.97c-2.6,0-4.29,1.82-5.2,4.94-1.04,3.51-.26,5.85,2.34,5.85l32.37.13c26.78.13,33.28,10.79,33.41,23.53.26,17.68-12.09,23.79-33.15,23.66l-44.72-.13c-19.24,0-30.55-5.85-30.55-21.58s10.14-21.71,28.99-21.71l6.76-17.16c-14.04.39-26.39-5.85-26.52-21.84,0-16.38,11.83-23.4,29.9-23.4h10.92c4.29,0,8.19,3.51,11.7,6.11l2.6-3.51c-4.16-3.64-9.36-7.28-9.23-14.69,0-5.2,3.51-8.84,10.01-8.84h42.9l-.13,14.17ZM376.22,423.21l-34.19-.26c-10.4-.13-15.86,3.9-15.6,11.44.39,7.15,5.72,10.66,14.56,10.66l36.27.26c10.14.13,15.21-3.51,15.21-11.18-.13-7.41-4.94-11.05-16.25-10.92ZM369.59,363.67l-20.67-.26c-10.14-.13-15.08,5.98-14.82,13,.39,7.15,5.33,11.31,14.43,11.57l21.45.39c9.62.13,14.69-5.2,14.69-13,0-6.76-5.59-11.83-15.08-11.7Z"/>
          <path class="cls-1" d="M491.8,385.77l-18.2.13c0-13.52-4.16-20.67-18.33-20.67-22.49,0-33.28,17.94-33.28,27.04v32.63h-19.5v-73.32h19.5v11.83l-2.86,7.93h4.42c8.32-15.34,20.15-21.19,35.36-21.19,18.07,0,34.06,8.32,32.89,35.62Z"/>
          <path class="cls-1" d="M505.57,380.05c17.03,0,29.9,7.67,38.74,13.52.13-2.34,0-7.54,0-9.62,0-13-6.37-18.33-23.14-18.33h-37.96l-.13-14.04h44.98c24.7,0,35.75,10.27,35.75,34.19v24.57h12.87v14.56h-22.88v-.13l-2.47.13c-4.16,0-5.98-4.55-5.98-7.54,0-4.16,2.47-11.83,3.77-13.78l-3.9-2.08c-8.71,19.5-26.26,24.57-38.48,24.57-15.99,0-31.59-8.84-31.59-24.44s14.56-21.58,30.42-21.58ZM514.15,414.89c18.59,0,26.52-15.47,26.52-15.47,0,0-14.95-9.75-28.08-9.75-5.59,0-17.94,1.82-17.94,12.22,0,8.58,9.62,13,19.5,13Z"/>
          <path class="cls-1" d="M582.53,402.28h-4.03l6.11,13.13v41.86h-19.5v-105.69h19.5v8.45l-5.85,8.71h4.42c6.24-10.01,22.62-18.33,39.13-18.33,20.41,0,39,12.61,39,37.7s-19.11,37.96-39.52,37.96c-18.72,0-32.76-10.79-39.26-23.79ZM584.74,386.16c0,13.91,10.66,26.52,30.68,26.52,18.2,0,26.39-10.4,26.39-25.74s-8.71-25.22-26.91-25.22-30.16,9.75-30.16,24.44Z"/>
          <path class="cls-1" d="M745.68,383.95v40.95h-19.24v-36.92c0-8.71-1.43-22.75-19.63-22.75-20.67,0-32.5,17.94-32.5,27.04v32.63h-19.5v-95.03h19.5v33.54l-2.86,7.93h4.42c8.58-15.73,19.63-21.19,34.97-21.19,16.64,0,34.84,6.37,34.84,33.8Z"/>
          <path class="cls-1" d="M733.33,410.21h22.23v-44.59h-22.23v-14.04h28.08c10.4,0,13.65,5.85,13.65,13.65v44.98h21.97v14.56h-63.7v-14.56ZM764.27,317.39c7.41,0,12.35,4.55,12.35,11.44s-4.94,11.57-12.35,11.57-12.35-4.68-12.35-11.57,4.94-11.44,12.35-11.44Z"/>
          <path class="cls-1" d="M870.87,394.48c-3.12,21.19-25.35,32.24-47.19,32.24-24.05,0-45.11-13.39-45.11-38.09,0-26.52,23.66-38.48,45.76-38.48,20.67,0,42.12,10.27,43.68,32.24h-18.07c-.26-12.22-10.66-20.93-26.52-20.93-18.98,0-27.17,12.61-27.17,27.17,0,18.72,11.7,26.91,27.17,26.91s27.95-9.23,29.25-21.06h18.2Z"/>
        </g>
      </g>
      <g>
        <g>
          <path class="cls-3" d="M53.99,544.05v-37.24h22.23v-21.91h-22.23v-36.72h21.44c-1.83-3.3-2.85-7.17-2.85-11.41,0-13.2,9.96-22.78,23.69-22.78s23.69,9.58,23.69,22.78c0,7.51-3.19,13.86-8.45,17.95,4.43,4.33,6.89,10.64,6.89,18.45v33.64h21.97v37.24H53.99Z"/>
          <path class="cls-3" d="M142.03,544.05c-16.06,0-27.72-11.66-27.72-27.72v-53.16l-13.39.13v-36.83h55.7v80.08h17.55v37.5h-32.14Z"/>
          <path class="cls-3" d="M175.83,544.05c-16.06,0-27.72-11.66-27.72-27.72v-53.16l-13.39.13v-36.83h55.7v80.08h17.55v37.5h-32.14Z"/>
          <path class="cls-3" d="M215.87,545.48c-28.16,0-45.66-17.3-45.66-45.14v-52.29h41.92v49.17c0,9.84,1.97,11.41,8.29,11.41,14,0,20.57-12.49,20.64-15.71v-44.87h42.18v96h-42.18v-4.58c-7.23,3.97-15.68,6.01-25.19,6.01Z"/>
          <path class="cls-3" d="M308.04,545.88c-18.27,0-32.45-3.91-42.16-11.63-8.17-6.5-12.86-15.63-12.86-25.06v-11.34h10.71c-4.45-5.93-5.38-12.46-5.38-16.87,0-11.25,5.77-20.71,16.24-26.66,8.83-5.01,21-7.56,36.18-7.56,32.65,0,52.94,14.56,52.94,37.99v11.34h-4.96c3.98,5.57,4.83,11.6,4.83,15.7,0,10.25-5.41,34.09-55.54,34.09Z"/>
          <path class="cls-3" d="M382.26,544.05c-27.26,0-44.88-16.8-44.88-42.8,0-6,.87-11.49,2.54-16.35h-12.84l-.34-36.72h20.52v-14.9l40.7-9.73-.15,24.63h25.28v36.72h-31.36c-.98,0-3.31.08-3.81.85-.49.73-1.62,3.23-1.62,10.56,0,10.5,1.87,10.5,6.86,10.5h29.8v37.24h-30.71Z"/>
          <path class="cls-3" d="M382.88,544.18v-96h42.18v4.78c7.34-4.13,15.89-6.21,25.58-6.21,13.96,0,25.42,4.26,33.15,12.33,7.99,8.34,11.71,20.15,11.07,35.12l-.46,10.78-40.41.29v-11.42c0-6.31-1.11-8-1.33-8.28-.24-.29-1.72-1.05-5.66-1.05-16.23,0-21.94,12.93-21.94,15.7v43.97h-42.18Z"/>
          <path class="cls-3" d="M498.48,545.35c-24.47,0-42.93-15.38-42.93-35.78,0-10.33,4.62-18.88,12.61-24.67h-4.45l-.34-36.72h56.43c31.25,0,47.09,15.32,47.09,45.53v13.23h12.87v37.24h-45.56v-2.63c-2.05-1.3-3.88-3.05-5.31-5.22-8.6,5.83-19.02,9.02-30.42,9.02ZM498.44,509.93c1.27.7,3.78,1.57,7.46,1.57,2.45,0,4.6-.42,6.47-1.09-2.75-.87-5.54-1.46-8.03-1.46-2.36,0-4.57.47-5.9.98Z"/>
          <path class="cls-3" d="M593.9,544.05c-27.26,0-44.88-16.8-44.88-42.8,0-6,.87-11.49,2.54-16.35h-12.84l-.34-36.72h20.52v-14.9l40.7-9.73-.15,24.63h25.28v36.72h-31.36c-.98,0-3.31.08-3.81.85-.49.73-1.62,3.23-1.62,10.56,0,10.5,1.87,10.5,6.86,10.5h29.8v37.24h-30.71Z"/>
          <path class="cls-3" d="M586.2,544.05v-37.24h22.23v-21.91h-22.23v-36.72h21.44c-1.83-3.3-2.85-7.17-2.85-11.41,0-13.2,9.96-22.78,23.69-22.78s23.69,9.58,23.69,22.78c0,7.51-3.19,13.86-8.45,17.95,4.43,4.33,6.89,10.64,6.89,18.45v33.64h21.97v37.24h-86.38Z"/>
          <path class="cls-3" d="M690.1,546.13c-33.44,0-58.66-21.31-58.66-49.56,0-15.2,7.17-28.66,20.18-37.9,10.67-7.58,24.94-11.92,39.13-11.92s27.57,4.12,37.86,11.61c12.49,9.1,19.37,22.66,19.37,38.21s-6.6,28.08-18.58,37.2c-10.47,7.97-24.43,12.36-39.31,12.36ZM690.23,480.61c-6.73,0-16.74,4.18-16.74,15.7,0,9.86,6.72,16.74,16.35,16.74s15.96-6.73,15.96-16.74c0-3.68-1.12-15.7-15.57-15.7Z"/>
          <path class="cls-3" d="M788.09,544.18v-48.26c0-10.9-2.8-11.41-8.16-11.41-13.7,0-19.86,12.48-19.86,15.7v43.97h-42.18v-96h42.18v4.71c7.37-4.11,16-6.14,25.97-6.14,27.94,0,43.97,16.45,43.97,45.14v52.29h-41.92Z"/>
        </g>
        <g>
          <path class="cls-1" d="M65.33,518.16h22.23v-44.59h-22.23v-14.04h28.08c10.4,0,13.65,5.85,13.65,13.65v44.98h21.97v14.56h-63.7v-14.56ZM96.27,425.33c7.41,0,12.35,4.55,12.35,11.44s-4.94,11.57-12.35,11.57-12.35-4.68-12.35-11.57,4.94-11.44,12.35-11.44Z"/>
          <path class="cls-1" d="M125.65,451.72l-13.39.13v-14.04h33.02v80.08h17.55v14.82h-20.8c-9.88,0-16.38-6.63-16.38-16.38v-64.61Z"/>
          <path class="cls-1" d="M159.45,451.72l-13.39.13v-14.04h33.02v80.08h17.55v14.82h-20.8c-9.88,0-16.38-6.63-16.38-16.38v-64.61Z"/>
          <path class="cls-1" d="M181.55,500.34v-40.95h19.24v37.83c0,8.71,1.43,22.75,19.63,22.75,20.41,0,31.98-17.94,31.98-27.04v-33.54h19.5v73.32h-19.5v-11.83l2.73-7.93h-4.29c-7.15,14.3-19.11,21.19-34.97,21.19s-34.32-7.15-34.32-33.8Z"/>
          <path class="cls-1" d="M352.24,511.79c0,14.69-15.99,22.75-44.2,22.75-35.36,0-43.68-15.99-43.68-25.35h18.72c.78,9.36,13,13.39,25.61,13.39,19.63,0,26.52-3.25,26.52-10.79,0-18.98-65.52,1.04-65.52-30.81,0-14.3,14.3-22.88,41.08-22.88,22.49,0,41.6,7.54,41.6,26.65h-17.68c-1.04-10.27-9.88-14.56-23.92-14.56s-22.49,2.86-22.49,11.57c0,18.72,63.96-.13,63.96,30.03Z"/>
          <path class="cls-1" d="M376.42,459.52h25.35v14.04h-20.02c-13,0-16.77,8.19-16.77,22.75,0,13.13,3.77,21.84,18.2,21.84h18.46v14.56h-19.37c-21.58,0-33.54-11.96-33.54-31.46,0-14.56,6.11-26.13,21.06-28.73v-4.29l-13.91,5.33h-17.55l-.13-14.04h20.41v-17.29l17.94-4.29-.13,21.58Z"/>
          <path class="cls-1" d="M483.54,493.71l-18.2.13c0-13.52-4.16-20.67-18.33-20.67-22.49,0-33.28,17.94-33.28,27.04v32.63h-19.5v-73.32h19.5v11.83l-2.86,7.93h4.42c8.32-15.34,20.15-21.19,35.36-21.19,18.07,0,34.06,8.32,32.89,35.62Z"/>
          <path class="cls-1" d="M497.31,487.99c17.03,0,29.9,7.67,38.74,13.52.13-2.34,0-7.54,0-9.62,0-13-6.37-18.33-23.14-18.33h-37.96l-.13-14.04h44.98c24.7,0,35.75,10.27,35.75,34.19v24.57h12.87v14.56h-22.88v-.13l-2.47.13c-4.16,0-5.98-4.55-5.98-7.54,0-4.16,2.47-11.83,3.77-13.78l-3.9-2.08c-8.71,19.5-26.26,24.57-38.48,24.57-15.99,0-31.59-8.84-31.59-24.44s14.56-21.58,30.42-21.58ZM505.89,522.84c18.59,0,26.52-15.47,26.52-15.47,0,0-14.95-9.75-28.08-9.75-5.59,0-17.94,1.82-17.94,12.22,0,8.58,9.62,13,19.5,13Z"/>
          <path class="cls-1" d="M588.05,459.52h25.35v14.04h-20.02c-13,0-16.77,8.19-16.77,22.75,0,13.13,3.77,21.84,18.2,21.84h18.46v14.56h-19.37c-21.58,0-33.54-11.96-33.54-31.46,0-14.56,6.11-26.13,21.06-28.73v-4.29l-13.91,5.33h-17.55l-.13-14.04h20.41v-17.29l17.94-4.29-.13,21.58Z"/>
          <path class="cls-1" d="M597.54,518.16h22.23v-44.59h-22.23v-14.04h28.08c10.4,0,13.65,5.85,13.65,13.65v44.98h21.97v14.56h-63.7v-14.56ZM628.48,425.33c7.41,0,12.35,4.55,12.35,11.44s-4.94,11.57-12.35,11.57-12.35-4.68-12.35-11.57,4.94-11.44,12.35-11.44Z"/>
          <path class="cls-1" d="M736.65,496.57c0,24.18-22.1,38.22-46.54,38.22s-47.32-14.56-47.32-38.22c0-25.09,25.09-38.48,47.97-38.48s45.89,12.35,45.89,38.48ZM689.84,524.4c16.12,0,27.3-12.09,27.3-28.08,0-14.82-9.75-27.04-26.91-27.04-18.72,0-28.08,14.43-28.08,27.04,0,15.86,11.44,28.08,27.69,28.08Z"/>
          <path class="cls-1" d="M818.67,491.89v40.95h-19.24v-36.92c0-8.71-1.43-22.75-19.5-22.75-20.41,0-31.2,17.94-31.2,27.04v32.63h-19.5v-73.32h19.5v11.83l-2.86,7.93h4.42c8.32-15.34,20.15-21.19,35.75-21.19,17.03,0,32.63,7.15,32.63,33.8Z"/>
        </g>
      </g>
      <g>
        <g>
          <path class="cls-3" d="M187.24,685.54v-128.37h42.18v4.51c8.14-3.59,17.33-5.68,26.36-5.68,29.64,0,50.34,20.17,50.34,49.04,0,15.2-5.55,28.02-16.04,37.07-9.14,7.88-21.51,12.23-34.82,12.23-9.25,0-18.07-2.19-25.84-6.21v37.41h-42.18ZM248.37,589.98c-5.66,0-18.82,1.28-18.82,13.1,0,9.22,7.59,15.18,19.34,15.18,10.69,0,15.05-4.17,15.05-14.4,0-11.56-5.96-13.88-15.57-13.88Z"/>
          <path class="cls-3" d="M276.55,653.17v-96h42.18v4.78c7.34-4.13,15.89-6.21,25.58-6.21,13.96,0,25.42,4.26,33.15,12.33,7.99,8.34,11.71,20.15,11.07,35.12l-.46,10.78-40.41.29v-11.42c0-6.31-1.11-8-1.33-8.28-.24-.29-1.72-1.05-5.66-1.05-16.23,0-21.94,12.93-21.94,15.7v43.97h-42.18Z"/>
          <path class="cls-3" d="M407.88,655.12c-33.44,0-58.66-21.31-58.66-49.56,0-15.2,7.17-28.66,20.18-37.9,10.67-7.58,24.94-11.92,39.13-11.92s27.57,4.12,37.86,11.61c12.49,9.1,19.37,22.66,19.37,38.21s-6.6,28.08-18.58,37.2c-10.47,7.97-24.43,12.36-39.3,12.36ZM408.01,589.59c-6.73,0-16.74,4.18-16.74,15.7,0,9.86,6.72,16.74,16.35,16.74s15.96-6.73,15.96-16.74c0-3.68-1.12-15.7-15.57-15.7Z"/>
          <path class="cls-3" d="M418.9,685.8v-38.41h11.34c5.72,0,9-.19,10.86-.42.02-.48.03-1.06.03-1.76v-88.04h.84c-2.69-3.7-4.22-8.32-4.22-13.49,0-13.2,9.96-22.78,23.69-22.78s23.69,9.58,23.69,22.78c0,5.17-1.53,9.79-4.22,13.49h2.14v89.34c0,36.47-21.89,39.29-52.81,39.29h-11.34Z"/>
          <path class="cls-3" d="M511.62,654.99c-33.39,0-56.71-20.33-56.71-49.43s23-49.82,55.93-49.82c16.38,0,30.11,5.2,39.69,15.04,8.45,8.68,12.93,20.3,13.01,33.71h7.42l-3.33,13.96c-5.28,22.19-27.27,36.53-56.01,36.53ZM500.6,617.54c2.27,1.86,5.83,3.19,11.41,3.19s9.5-1.39,12.25-3.19h-23.66Z"/>
          <path class="cls-3" d="M590,654.99c-14.76,0-28.45-4.32-38.54-12.17-11.55-8.99-17.91-22.22-17.91-37.26s6.84-29.33,19.27-38.36c10.17-7.39,23.61-11.46,37.83-11.46,25.02,0,52.9,13.39,54.99,42.78l.11,1.56h4.57l-1.91,12.99c-1.93,13.1-9.67,24.48-21.79,32.04-10.23,6.38-23.23,9.89-36.62,9.89ZM589.74,589.72c-3.92,0-15.83,0-15.83,15.83,0,7.25,1.8,15.57,15.83,15.57,9.31,0,16.89-4.47,17.91-10.47h-2.49l-.24-11.1c-.15-7.25-7.95-9.83-15.19-9.83Z"/>
          <path class="cls-3" d="M665.92,653.04c-27.26,0-44.88-16.8-44.88-42.8,0-6,.87-11.49,2.54-16.35h-12.84l-.34-36.72h20.52v-14.9l40.7-9.73-.15,24.63h25.28v36.72h-31.36c-.98,0-3.31.08-3.81.85-.49.73-1.62,3.23-1.62,10.56,0,10.5,1.87,10.5,6.86,10.5h29.8v37.24h-30.71Z"/>
        </g>
        <g>
          <path class="cls-1" d="M216,619.21h-4.03l6.11,13.13v41.86h-19.5v-105.69h19.5v8.45l-5.85,8.71h4.42c6.24-10.01,22.62-18.33,39.13-18.33,20.41,0,39,12.61,39,37.7s-19.11,37.96-39.52,37.96c-18.72,0-32.76-10.79-39.26-23.79ZM218.21,603.09c0,13.91,10.66,26.52,30.68,26.52,18.2,0,26.39-10.4,26.39-25.74s-8.71-25.22-26.91-25.22-30.16,9.75-30.16,24.44Z"/>
          <path class="cls-1" d="M377.2,602.7l-18.2.13c0-13.52-4.16-20.67-18.33-20.67-22.49,0-33.28,17.94-33.28,27.04v32.63h-19.5v-73.32h19.5v11.83l-2.86,7.93h4.42c8.32-15.34,20.15-21.19,35.36-21.19,18.07,0,34.06,8.32,32.89,35.62Z"/>
          <path class="cls-1" d="M454.42,605.56c0,24.18-22.1,38.22-46.54,38.22s-47.32-14.56-47.32-38.22c0-25.09,25.09-38.48,47.97-38.48s45.89,12.35,45.89,38.48ZM407.62,633.38c16.12,0,27.3-12.09,27.3-28.08,0-14.82-9.75-27.04-26.91-27.04-18.72,0-28.08,14.43-28.08,27.04,0,15.86,11.44,28.08,27.69,28.08Z"/>
          <path class="cls-1" d="M471.71,568.5v78c0,24.05-8.71,27.95-41.47,27.95v-15.73c19.5,0,22.23-1.69,22.23-13.52v-76.7h19.24ZM461.44,532.23c7.41,0,12.35,4.55,12.35,11.44s-4.94,11.44-12.35,11.44-12.35-4.55-12.35-11.44,4.94-11.44,12.35-11.44Z"/>
          <path class="cls-1" d="M485.48,606.21v3.12c.26,14.43,11.44,22.75,26.52,22.75,10.53,0,23.79-4.55,27.43-16.25h17.16c-4.55,19.11-24.7,27.82-44.98,27.82-24.83,0-45.37-13.26-45.37-38.09s21.32-38.48,44.59-38.48c25.22,0,41.99,14.82,41.34,39.13h-66.69ZM533.2,598.67c-.39-11.96-7.54-20.28-22.49-20.28-16.25,0-22.49,9.62-24.44,20.28h46.93Z"/>
          <path class="cls-1" d="M637.2,611.41c-3.12,21.19-25.35,32.24-47.19,32.24-24.05,0-45.11-13.39-45.11-38.09,0-26.52,23.66-38.48,45.76-38.48,20.67,0,42.12,10.27,43.68,32.24h-18.07c-.26-12.22-10.66-20.93-26.52-20.93-18.98,0-27.17,12.61-27.17,27.17,0,18.72,11.7,26.91,27.17,26.91s27.95-9.23,29.25-21.06h18.2Z"/>
          <path class="cls-1" d="M660.07,568.5h25.35v14.04h-20.02c-13,0-16.77,8.19-16.77,22.75,0,13.13,3.77,21.84,18.2,21.84h18.46v14.56h-19.37c-21.58,0-33.54-11.96-33.54-31.46,0-14.56,6.11-26.13,21.06-28.73v-4.29l-13.91,5.33h-17.55l-.13-14.04h20.41v-17.29l17.94-4.29-.13,21.58Z"/>
        </g>
      </g>
    </g>
  </g>
</svg>