<?xml version="1.0" encoding="UTF-8"?>
<svg id="_喇뒨쏛_2" data-name="喇뒨쏛 2" xmlns="http://www.w3.org/2000/svg" viewBox="0 0 70.29 55.28">
  <defs>
    <style>
      .cls-1 {
        fill: #dbdcdc;
      }
    </style>
  </defs>
  <g id="_喇뒨쏛_1-2" data-name="喇뒨쏛 1">
    <g>
      <path class="cls-1" d="M0,27.74L27.46,0l2.93,2.89h22.62c9.53,0,17.28,7.75,17.28,17.29s-7.75,17.27-17.28,17.27h-14.41l3.39,3.3-14.54,14.54L0,27.74Z"/>
      <path d="M53.01,9.89h-18.69v2.84l10.1,2.84h8.59c2.54,0,4.6,2.06,4.6,4.6s-2.07,4.6-4.61,4.6h-26.85c-1.66,0-9.2,1.42-10.8,2.1l-.8-1.98c1.6-.62,9.32-2.22,10.43-3.58l7.04-6.98-4.51-4.44L9.87,27.73l17.59,17.65,4.57-4.57-7.1-6.91c-1.11-1.29-8.77-2.96-10.37-3.64l.8-1.91c1.6.68,9.07,2.1,10.8,2.1h26.85c5.68,0,10.28-4.6,10.28-10.27s-4.6-10.29-10.28-10.29Z"/>
    </g>
  </g>
</svg>