<?xml version="1.0" encoding="UTF-8"?>
<svg id="_圖層_2" data-name="圖層 2" xmlns="http://www.w3.org/2000/svg" viewBox="0 0 552.51 378.47">
  <defs>
    <style>
      .cls-1 {
        fill: #140305;
      }

      .cls-2 {
        fill: #dbdcdc;
      }
    </style>
  </defs>
  <g id="_圖層_1-2" data-name="圖層 1">
    <g>
      <g>
        <g>
          <path class="cls-2" d="M4.04,128.41v-37.01h21.89v-21.23H4.04v-36.5h20.99c-1.73-3.22-2.68-6.97-2.68-11.06C22.34,9.51,32.22,0,45.84,0s23.5,9.51,23.5,22.6c0,7.38-3.1,13.62-8.22,17.69,4.3,4.29,6.69,10.49,6.69,18.15v32.95h21.63v37.01H4.04Z"/>
          <path class="cls-2" d="M98.83,129.43c-24.72,0-49.74-16.95-49.74-49.36,0-28.16,20.66-47.82,50.25-47.82,9.18,0,17.7,1.99,25.27,5.8V12.29h41.88v116.12h-41.88v-4.72c-7.68,3.5-16.56,5.75-25.78,5.75ZM106.39,66.97c-11.09,0-15.41,4-15.41,14.26s4.34,14.26,14.52,14.26c11.26,0,19.13-6.13,19.13-14.9s-6.65-13.62-18.23-13.62Z"/>
          <path class="cls-2" d="M192.66,130.33c-32.98,0-56.01-20.08-56.01-48.84s22.72-49.23,55.24-49.23c16.18,0,29.74,5.14,39.21,14.87,8.32,8.55,12.74,19.97,12.86,33.14h7.35l-3.33,13.96c-5.22,21.93-26.94,36.1-55.32,36.1ZM182.33,93.46c2.22,1.65,5.6,2.8,10.71,2.8,3.38,0,8.02-.81,11.53-2.8h-22.24Z"/>
          <path class="cls-2" d="M287.3,128.54v-47.69c0-11.06-2.96-11.06-7.86-11.06-13.37,0-19.38,12.15-19.38,15.29v43.47h-41.88V33.67h41.88v4.52c7.22-3.97,15.66-5.92,25.4-5.92,27.62,0,43.47,16.26,43.47,44.62v51.66h-41.62Z"/>
          <path class="cls-2" d="M348.43,128.41c-26.95,0-44.36-16.61-44.36-42.32,0-5.84.84-11.18,2.43-15.93h-12.57l-.34-36.5h20.2v-14.63l40.43-9.67-.15,24.3h24.89v36.5h-31.05c-.52,0-3.13.04-3.61.76-.47.71-1.56,3.13-1.56,10.31,0,10.17,1.79,10.17,6.58,10.17h29.52v37.01h-30.41Z"/>
          <path class="cls-2" d="M340.68,128.41v-37.01h21.89v-21.23h-21.89v-36.5h20.99c-1.73-3.22-2.68-6.97-2.68-11.06,0-13.1,9.88-22.6,23.5-22.6s23.5,9.51,23.5,22.6c0,7.38-3.1,13.62-8.22,17.69,4.3,4.29,6.69,10.49,6.69,18.15v32.95h21.63v37.01h-85.4Z"/>
          <path class="cls-2" d="M439.57,128.41c-26.95,0-44.36-16.61-44.36-42.32,0-5.84.84-11.18,2.43-15.93h-12.57l-.34-36.5h20.2v-14.63l40.43-9.67-.15,24.3h24.89v36.5h-31.05c-.52,0-3.13.04-3.61.76-.47.71-1.56,3.13-1.56,10.31,0,10.17,1.79,10.17,6.58,10.17h29.52v37.01h-30.41Z"/>
          <path class="cls-2" d="M458.18,160.41v-36.89h12.08c-3.76-2.64-6.67-6.39-8.78-11.28l-37.12-78.58h45.43l20.04,44.15,18.79-44.15h43.89l-35.53,84.53,16.92,42.21h-75.72Z"/>
        </g>
        <g>
          <path class="cls-1" d="M15.38,102.73h21.89v-43.91H15.38v-13.82h27.65c10.24,0,13.44,5.76,13.44,13.44v44.29h21.63v14.34H15.38v-14.34ZM45.84,11.34c7.3,0,12.16,4.48,12.16,11.26s-4.86,11.39-12.16,11.39-12.16-4.61-12.16-11.39,4.86-11.26,12.16-11.26Z"/>
          <path class="cls-1" d="M138,65.87h3.97l-6.02-11.78v-30.47h19.2v93.44h-19.2v-8.58l5.89-9.6h-4.35c-4.22,8.58-20.87,19.2-38.66,19.2-19.84,0-38.4-13.18-38.4-38.02s18.69-36.48,38.91-36.48c16.9,0,30.21,8.19,38.66,22.27ZM135.95,80.59c0-13.18-9.6-24.96-29.57-24.96s-26.75,11.26-26.75,25.6c0,16.38,9.6,25.6,25.86,25.6,18.05,0,30.46-11.39,30.46-26.24Z"/>
          <path class="cls-1" d="M166.93,82.13v3.07c.26,14.21,11.26,22.4,26.11,22.4,10.37,0,23.42-4.48,27.01-16h16.9c-4.48,18.82-24.32,27.39-44.29,27.39-24.45,0-44.67-13.06-44.67-37.51s20.99-37.89,43.91-37.89c24.83,0,41.35,14.59,40.71,38.53h-65.67ZM213.91,74.7c-.38-11.78-7.42-19.97-22.15-19.97-16,0-22.14,9.47-24.07,19.97h46.21Z"/>
          <path class="cls-1" d="M317.59,76.88v40.32h-18.94v-36.35c0-8.58-1.41-22.4-19.2-22.4-20.1,0-30.72,17.67-30.72,26.63v32.13h-19.2V45h19.2v11.65l-2.82,7.81h4.35c8.19-15.1,19.84-20.87,35.2-20.87,16.77,0,32.13,7.04,32.13,33.28Z"/>
          <path class="cls-1" d="M342.67,45h24.96v13.82h-19.71c-12.8,0-16.51,8.06-16.51,22.4,0,12.93,3.71,21.5,17.92,21.5h18.18v14.34h-19.07c-21.25,0-33.03-11.78-33.03-30.98,0-14.34,6.02-25.73,20.74-28.29v-4.22l-13.7,5.25h-17.28l-.13-13.82h20.1v-17.02l17.67-4.22-.13,21.25Z"/>
          <path class="cls-1" d="M352.01,102.73h21.89v-43.91h-21.89v-13.82h27.65c10.24,0,13.44,5.76,13.44,13.44v44.29h21.63v14.34h-62.72v-14.34ZM382.48,11.34c7.3,0,12.16,4.48,12.16,11.26s-4.86,11.39-12.16,11.39-12.16-4.61-12.16-11.39,4.86-11.26,12.16-11.26Z"/>
          <path class="cls-1" d="M433.81,45h24.96v13.82h-19.71c-12.8,0-16.51,8.06-16.51,22.4,0,12.93,3.71,21.5,17.92,21.5h18.18v14.34h-19.07c-21.25,0-33.03-11.78-33.03-30.98,0-14.34,6.02-25.73,20.74-28.29v-4.22l-13.7,5.25h-17.28l-.13-13.82h20.1v-17.02l17.67-4.22-.13,21.25Z"/>
          <path class="cls-1" d="M535.44,45l-30.72,73.09,12.42,30.98h-47.62v-14.21h23.3l-6.79-17.92c-7.04-.38-11.39-2.69-14.21-9.34l-29.57-62.59h20.22l25.22,55.55-2.69,7.3h4.35l26.75-62.85h19.33Z"/>
        </g>
      </g>
      <g>
        <g>
          <path class="cls-2" d="M41.78,281.35c-12.33,0-21.7-2.2-28.62-6.73-6.01-3.94-13.16-11.66-13.16-26.13,0-8.47,2.86-26.54,26.32-31.63-10.67-5.36-17.01-15.54-17.11-28.84,0-21.81,15.39-34.77,41.17-34.77h4.61c0-.27,0-.55,0-.83.05-11.63,9-20.05,21.32-20.05h54.24l-.34,36.81h-15.51c5.2,6.81,6.22,14.67,6.28,19.48.2,10.04-2.66,18.16-8.51,24.14-.92.94-1.88,1.79-2.88,2.57,16.84,6.25,21.13,19.48,21.25,31.06.15,9.9-2.78,17.99-8.7,23.99-7.34,7.44-18.8,11.06-35.06,11.06l-45.3-.13ZM76.13,189.94c1.66,0,2.55-.31,2.82-.47.04-.12.12-.4.15-.92-.46-.24-1.54-.58-3.34-.58h-.5s-20.79-.26-20.79-.26c-2.06,0-2.96.49-3.08.62,0,.02-.06.19-.05.5,0,.07.01.13.02.18.49.2,1.55.48,3.32.54l21.47.39Z"/>
          <path class="cls-2" d="M96.87,249.06v-95.82h42.13v4.75c7.32-4.11,15.83-6.17,25.49-6.17,13.93,0,25.38,4.26,33.09,12.31,7.97,8.32,11.69,20.11,11.05,35.05l-.46,10.78-40.36.29v-11.42c0-6.29-1.1-7.97-1.32-8.24-.23-.29-1.7-1.04-5.63-1.04-16.17,0-21.86,12.88-21.86,15.64v43.89h-42.13Z"/>
          <path class="cls-2" d="M164.82,248.93v-37.2h22.18v-21.8h-22.18v-36.68h21.37c-1.81-3.29-2.82-7.14-2.82-11.36,0-13.18,9.95-22.75,23.66-22.75s23.66,9.57,23.66,22.75c0,7.49-3.18,13.82-8.41,17.91,4.41,4.32,6.86,10.61,6.86,18.4v33.53h21.92v37.2h-86.22Z"/>
          <path class="cls-2" d="M217.21,281.35v-128.11h42.13v4.48c8.11-3.57,17.28-5.65,26.27-5.65,29.58,0,50.24,20.13,50.24,48.95,0,15.17-5.54,27.97-16.01,37-9.12,7.87-21.47,12.2-34.75,12.2-9.22,0-18-2.18-25.75-6.17v37.3h-42.13ZM278.22,186.03c-5.64,0-18.75,1.27-18.75,13.04,0,9.18,7.56,15.12,19.27,15.12,10.65,0,14.99-4.15,14.99-14.34,0-11.51-5.93-13.82-15.51-13.82Z"/>
          <path class="cls-2" d="M378.14,249.06v-48.17c0-10.33-2.39-11.36-8.24-11.36-14.18,0-20.98,12.44-21.08,15.65v43.87h-42.13v-117.48h42.13v26.11c7.11-3.97,15.41-5.88,25.1-5.88,28.86,0,46.09,16.84,46.09,45.06v52.19h-41.87Z"/>
          <path class="cls-2" d="M385.02,248.93v-37.2h22.18v-21.8h-22.18v-36.68h21.37c-1.81-3.29-2.82-7.14-2.82-11.36,0-13.18,9.95-22.75,23.66-22.75s23.66,9.57,23.66,22.75c0,7.49-3.18,13.82-8.41,17.91,4.41,4.32,6.86,10.61,6.86,18.4v33.53h21.92v37.2h-86.22Z"/>
          <path class="cls-2" d="M486.48,250.87c-14.73,0-28.39-4.31-38.46-12.15-11.53-8.97-17.88-22.18-17.88-37.19s6.83-29.28,19.23-38.29c10.15-7.38,23.56-11.44,37.76-11.44,24.97,0,52.8,13.36,54.88,42.7l.11,1.53h4.56l-1.91,12.99c-1.93,13.07-9.65,24.43-21.75,31.98-10.21,6.37-23.19,9.87-36.54,9.87ZM486.22,185.77c-3.9,0-15.77,0-15.77,15.77,0,7.22,1.79,15.51,15.77,15.51,9.26,0,16.79-4.43,17.83-10.39h-2.48l-.24-11.1c-.15-7.21-7.91-9.78-15.12-9.78Z"/>
        </g>
        <g>
          <path class="cls-1" d="M118.98,157.83h-36.18c-1.69.78-2.33,6.1-2.33,9.47,20.49,0,29.05,8.17,29.18,21.53.39,18.29-12.32,23.34-30.99,23.34h-21.92c-2.59,0-4.28,1.82-5.19,4.93-1.04,3.5-.26,5.84,2.33,5.84l32.29.13c26.71.13,33.2,10.76,33.33,23.47.26,17.64-12.06,23.73-33.07,23.6l-44.61-.13c-19.19,0-30.48-5.84-30.48-21.53s10.12-21.66,28.92-21.66l6.74-17.12c-14.01.39-26.33-5.84-26.46-21.79,0-16.34,11.8-23.34,29.83-23.34h10.89c4.28,0,8.17,3.5,11.67,6.1l2.59-3.5c-4.15-3.63-9.34-7.26-9.21-14.65,0-5.19,3.5-8.82,9.99-8.82h42.8l-.13,14.14ZM82.02,236.03l-34.11-.26c-10.38-.13-15.82,3.89-15.56,11.41.39,7.13,5.71,10.63,14.52,10.63l36.18.26c10.12.13,15.17-3.5,15.17-11.15-.13-7.39-4.93-11.02-16.21-10.89ZM75.4,176.64l-20.62-.26c-10.12-.13-15.04,5.97-14.78,12.97.39,7.13,5.32,11.28,14.39,11.54l21.4.39c9.6.13,14.65-5.19,14.65-12.97,0-6.74-5.58-11.8-15.04-11.67Z"/>
          <path class="cls-1" d="M197.3,198.68l-18.16.13c0-13.49-4.15-20.62-18.29-20.62-22.44,0-33.2,17.9-33.2,26.97v32.55h-19.45v-73.14h19.45v11.8l-2.85,7.91h4.41c8.3-15.3,20.1-21.14,35.27-21.14,18.03,0,33.98,8.3,32.81,35.53Z"/>
          <path class="cls-1" d="M176.16,223.06h22.18v-44.48h-22.18v-14.01h28.01c10.38,0,13.62,5.84,13.62,13.62v44.87h21.92v14.52h-63.55v-14.52ZM207.03,130.47c7.39,0,12.32,4.54,12.32,11.41s-4.93,11.54-12.32,11.54-12.32-4.67-12.32-11.54,4.93-11.41,12.32-11.41Z"/>
          <path class="cls-1" d="M245.93,215.15h-4.02l6.1,13.1v41.76h-19.45v-105.43h19.45v8.43l-5.84,8.69h4.41c6.23-9.99,22.57-18.29,39.04-18.29,20.36,0,38.91,12.58,38.91,37.61s-19.06,37.87-39.42,37.87c-18.67,0-32.68-10.76-39.17-23.73ZM248.13,199.07c0,13.88,10.63,26.46,30.61,26.46,18.16,0,26.33-10.38,26.33-25.68s-8.69-25.16-26.84-25.16-30.09,9.73-30.09,24.38Z"/>
          <path class="cls-1" d="M408.68,196.87v40.85h-19.19v-36.83c0-8.69-1.43-22.69-19.58-22.69-20.62,0-32.42,17.9-32.42,26.97v32.55h-19.45v-94.8h19.45v33.46l-2.85,7.91h4.41c8.56-15.69,19.58-21.14,34.89-21.14,16.6,0,34.76,6.35,34.76,33.72Z"/>
          <path class="cls-1" d="M396.35,223.06h22.18v-44.48h-22.18v-14.01h28.01c10.38,0,13.62,5.84,13.62,13.62v44.87h21.92v14.52h-63.55v-14.52ZM427.22,130.47c7.39,0,12.32,4.54,12.32,11.41s-4.93,11.54-12.32,11.54-12.32-4.67-12.32-11.54,4.93-11.41,12.32-11.41Z"/>
          <path class="cls-1" d="M533.56,207.37c-3.11,21.14-25.29,32.16-47.08,32.16-23.99,0-45-13.36-45-38,0-26.46,23.6-38.39,45.65-38.39,20.62,0,42.02,10.25,43.57,32.16h-18.03c-.26-12.19-10.63-20.88-26.46-20.88-18.93,0-27.1,12.58-27.1,27.1,0,18.67,11.67,26.84,27.1,26.84s27.88-9.21,29.18-21.01h18.16Z"/>
        </g>
      </g>
      <g>
        <g>
          <path class="cls-2" d="M138.99,376.29v-48.99c0-12.52-3.22-13.13-8.91-13.13-7.01,0-11.9,5.45-11.9,13.26v48.85h-42.79v-49.12c0-13.26-4.05-13.26-9.18-13.26-8.67,0-12.17,7.34-12.17,10.41v51.98H10.97v-99.06h43.06v2.9c5.92-2.98,12.52-4.53,19.65-4.53,12.36,0,22.55,5.04,29.5,14.25,8.38-9.04,19.88-14.25,32.47-14.25,28.46,0,46.13,18.56,46.13,48.44v52.25h-42.79Z"/>
          <path class="cls-2" d="M211.22,378.47c-34.67,0-60.81-22.05-60.81-51.3,0-15.72,7.42-29.64,20.88-39.2,11.07-7.86,25.88-12.37,40.61-12.37s28.61,4.28,39.28,12.04c12.92,9.41,20.04,23.45,20.04,39.52s-6.82,29.05-19.22,38.48c-10.85,8.26-25.34,12.82-40.78,12.82ZM211.36,309.97c-7.24,0-18.02,4.51-18.02,16.93,0,10.61,7.24,18.02,17.61,18.02s17.2-7.24,17.2-18.02c0-15.71-12.85-16.93-16.79-16.93Z"/>
          <path class="cls-2" d="M291.27,376.29c-13.94,0-25.64-4.13-33.82-11.94-8.23-7.86-12.58-19.02-12.58-32.29,0-6.5.99-12.41,2.88-17.61h-13.65l-.35-37.36h21.44v-15.68l41.52-9.93-.15,25.61h26.43v37.36h-32.27c-2.44,0-3.92.38-4.42,1.12-.53.81-1.78,3.52-1.78,11.33,0,11.49,2.41,11.49,7.69,11.49h30.64v37.9h-31.59Z"/>
          <path class="cls-2" d="M283.74,376.29v-37.9h23.24v-23.94h-23.24v-37.36h22.8c-2.16-3.54-3.36-7.77-3.36-12.45,0-13.5,10.2-23.3,24.25-23.3s24.25,9.8,24.25,23.3c0,7.91-3.46,14.56-9.13,18.73,4.82,4.44,7.5,11.06,7.5,19.32v35.69h22.97v37.9h-89.27Z"/>
          <path class="cls-2" d="M391.85,378.47c-34.67,0-60.81-22.05-60.81-51.3,0-15.72,7.42-29.64,20.88-39.2,11.07-7.86,25.88-12.37,40.61-12.37s28.61,4.28,39.28,12.04c12.92,9.41,20.04,23.45,20.04,39.52s-6.82,29.05-19.22,38.48c-10.85,8.26-25.34,12.82-40.78,12.82ZM391.98,309.97c-7.24,0-18.02,4.51-18.02,16.93,0,10.61,7.24,18.02,17.61,18.02s17.2-7.24,17.2-18.02c0-15.71-12.85-16.93-16.79-16.93Z"/>
          <path class="cls-2" d="M494.81,376.43v-49.94c0-11.87-3.27-12.45-9.05-12.45-14.68,0-21.28,13.46-21.28,16.93v45.45h-43.06v-99.33h43.06v5.31c7.8-4.56,16.98-6.8,27.67-6.8,28.89,0,45.45,17.01,45.45,46.67v54.15h-42.79Z"/>
        </g>
        <g>
          <path class="cls-1" d="M42.69,288.57v10.06l-4.76,11.28h3.81c7.34-16.17,19.16-22.97,31.94-22.97,11.42,0,21.75,5.71,26.23,22.02h4.35c5.71-13.73,17.53-22.02,31.4-22.02,20.66,0,34.79,11.96,34.79,37.1v40.91h-20.11v-37.65c0-15.36-5.16-24.46-20.25-24.46-13.46,0-23.24,10.6-23.24,24.6v37.51h-20.11v-37.78c0-15.36-5.44-24.6-20.52-24.6s-23.51,12.5-23.51,21.75v40.64h-20.39v-76.38h20.39Z"/>
          <path class="cls-1" d="M259.88,327.17c0,25.28-23.1,39.96-48.66,39.96s-49.47-15.22-49.47-39.96c0-26.23,26.23-40.23,50.15-40.23s47.98,12.91,47.98,40.23ZM210.95,356.26c16.85,0,28.54-12.64,28.54-29.36,0-15.49-10.19-28.27-28.13-28.27-19.57,0-29.36,15.09-29.36,28.27,0,16.58,11.96,29.36,28.95,29.36Z"/>
          <path class="cls-1" d="M285.16,288.44h26.5v14.68h-20.93c-13.59,0-17.53,8.56-17.53,23.78,0,13.73,3.94,22.83,19.03,22.83h19.3v15.22h-20.25c-22.56,0-35.06-12.5-35.06-32.89,0-15.22,6.39-27.32,22.02-30.04v-4.49l-14.54,5.57h-18.35l-.14-14.68h21.34v-18.08l18.76-4.49-.14,22.56Z"/>
          <path class="cls-1" d="M295.08,349.73h23.24v-46.62h-23.24v-14.68h29.36c10.87,0,14.27,6.12,14.27,14.27v47.02h22.97v15.22h-66.6v-15.22ZM327.42,252.69c7.75,0,12.91,4.76,12.91,11.96s-5.16,12.1-12.91,12.1-12.91-4.89-12.91-12.1,5.16-11.96,12.91-11.96Z"/>
          <path class="cls-1" d="M440.5,327.17c0,25.28-23.1,39.96-48.66,39.96s-49.47-15.22-49.47-39.96c0-26.23,26.23-40.23,50.15-40.23s47.98,12.91,47.98,40.23ZM391.57,356.26c16.85,0,28.54-12.64,28.54-29.36,0-15.49-10.19-28.27-28.13-28.27-19.57,0-29.36,15.09-29.36,28.27,0,16.58,11.96,29.36,28.95,29.36Z"/>
          <path class="cls-1" d="M526.26,322.28v42.81h-20.11v-38.6c0-9.11-1.49-23.78-20.39-23.78-21.34,0-32.62,18.76-32.62,28.27v34.11h-20.39v-76.65h20.39v12.37l-2.99,8.29h4.62c8.7-16.04,21.07-22.15,37.38-22.15,17.8,0,34.11,7.48,34.11,35.34Z"/>
        </g>
      </g>
    </g>
  </g>
</svg>