<?xml version="1.0" encoding="UTF-8"?>
<svg id="_圖層_2" data-name="圖層 2" xmlns="http://www.w3.org/2000/svg" viewBox="0 0 53.42 35.49">
  <g id="_圖層_1-2" data-name="圖層 1">
    <path d="M43.15,0h-18.69v2.84l10.1,2.84h8.59c2.54,0,4.6,2.06,4.6,4.6s-2.07,4.6-4.61,4.6h-26.85c-1.66,0-9.2,1.42-10.8,2.1l-.8-1.98c1.6-.62,9.32-2.22,10.43-3.58l7.04-6.98L17.65,0,0,17.84l17.59,17.65,4.57-4.57-7.1-6.91c-1.11-1.29-8.77-2.96-10.37-3.64l.8-1.91c1.6.68,9.07,2.1,10.8,2.1h26.85c5.68,0,10.28-4.6,10.28-10.27S48.82,0,43.15,0Z"/>
  </g>
</svg>